<?xml version="1.0" encoding="UTF-8"?>
<svg xmlns="http://www.w3.org/2000/svg" xmlns:xlink="http://www.w3.org/1999/xlink" width="390" height="844" viewBox="0 0 390 844">
  <defs>
    <filter id="fx0">
      <feDropShadow dx="0" dy="1" stdDeviation="1.5" flood-color="#384959" flood-opacity="0.08"/>
    </filter>
    <filter id="fx1">
      <feDropShadow dx="0" dy="1" stdDeviation="1.5" flood-color="#384959" flood-opacity="0.08"/>
    </filter>
  </defs>
  <g>
    <rect width="390" height="844" fill="#F7FAFE"/>
    <g>
      <g transform="translate(16, 5)">
        <text x="0" y="11" font-family="Hind" font-size="11" font-weight="600" fill="#384959">9:41</text>
      </g>
      <g transform="translate(329, 5)">
        <text x="0" y="11" font-family="Hind" font-size="11" font-weight="600" fill="#384959">5G  100%</text>
      </g>
    </g>
    <g transform="translate(0, 28)">
      <rect width="390" height="68" fill="#384959"/>
      <g transform="translate(16, 7)">
        <g>
          <text x="0" y="11" font-family="Hind" font-size="11" font-weight="600" fill="#BDDCFC">SELLER PORTAL</text>
        </g>
        <g transform="translate(0, 22)">
          <text x="0" y="20" font-family="Hind" font-size="20" font-weight="700" fill="#FFFFFF">Catalogue</text>
        </g>
      </g>
      <g transform="translate(326, 10)">
        <rect width="48" height="48" rx="8" ry="8" fill="#FFFFFF"/>
        <g transform="translate(18, 8)">
          <text x="0" y="20" font-family="Hind" font-size="20" font-weight="700" fill="#384959">+</text>
        </g>
      </g>
    </g>
    <g transform="translate(0, 96)">
      <g transform="translate(16, 16)">
        <g>
          <rect width="278" height="44" rx="8" ry="8" fill="#FFFFFF" stroke="#748EAA" stroke-width="1"/>
          <g transform="translate(12, 12.5)">
            <text x="0" y="12" font-family="Hind" font-size="12" fill="#55708A">Search SKU or product</text>
          </g>
        </g>
        <g transform="translate(286, 0)">
          <rect width="72" height="44" rx="8" ry="8" fill="#EAF3FE"/>
          <g transform="translate(21.5, 12.5)">
            <text x="0" y="12" font-family="Hind" font-size="12" font-weight="700" fill="#384959">Filter</text>
          </g>
        </g>
      </g>
      <g transform="translate(16, 72)">
        <rect width="358" height="44" rx="8" ry="8" fill="#EAF3FE"/>
        <g transform="translate(4, 4)">
          <rect width="114" height="19" rx="4" ry="4" fill="#FFFFFF"/>
          <g>
            <text x="0" y="12" font-family="Hind" font-size="12" font-weight="700" fill="#384959">Live 124</text>
          </g>
        </g>
        <g transform="translate(122, 4)">
          <g>
            <text x="0" y="12" font-family="Hind" font-size="12" font-weight="600" fill="#526D82">Draft 8</text>
          </g>
        </g>
        <g transform="translate(240, 4)">
          <g>
            <text x="0" y="12" font-family="Hind" font-size="12" font-weight="600" fill="#526D82">Issues 3</text>
          </g>
        </g>
      </g>
      <g transform="translate(16, 128)">
        <rect width="358" height="44" rx="8" ry="8" fill="#E7F1FF"/>
        <g transform="translate(12, 12.5)">
          <text x="0" y="12" font-family="Hind" font-size="12" font-weight="700" fill="#175CD3">2 selected</text>
        </g>
        <g transform="translate(67, 12.5)">
          <text x="0" y="12" font-family="Hind" font-size="12" font-weight="700" fill="#384959">Update stock</text>
        </g>
      </g>
      <g transform="translate(16, 184)">
        <g filter="url(#fx0)">
          <rect width="358" height="88" rx="12" ry="12" fill="#FFFFFF" stroke="#DCE6F0" stroke-width="1"/>
          <g transform="translate(12, 22)">
            <rect width="44" height="44" rx="8" ry="8" fill="#384959"/>
            <g transform="translate(14.5, 12.5)">
              <text x="0" y="16" font-family="Hind" font-size="16" font-weight="700" fill="#FFFFFF">✓</text>
            </g>
          </g>
          <g transform="translate(68, 8.5)">
            <g>
              <g>
                <text x="0" y="14" font-family="Hind" font-size="14" font-weight="700" fill="#384959">ACC Cement 50 kg</text>
              </g>
              <g transform="translate(240, 0)">
                <rect width="38" height="26" rx="999" ry="999" fill="#E5F5ED"/>
                <g transform="translate(8, 4)">
                  <text x="0" y="11" font-family="Hind" font-size="11" font-weight="700" fill="#067647">LIVE</text>
                </g>
              </g>
            </g>
            <g transform="translate(0, 30)">
              <text x="0" y="11" font-family="Hind" font-size="11" fill="#526D82">SKU ACC-OPC-50 · ₹395</text>
            </g>
            <g transform="translate(0, 52)">
              <text x="0" y="12" font-family="Hind" font-size="12" font-weight="600" fill="#067647">Stock 248 · 4 warehouses</text>
            </g>
          </g>
        </g>
        <g transform="translate(0, 96)" filter="url(#fx1)">
          <rect width="358" height="88" rx="12" ry="12" fill="#FFFFFF" stroke="#DCE6F0" stroke-width="1"/>
          <g transform="translate(12, 22)">
            <rect width="44" height="44" rx="8" ry="8" fill="#384959"/>
            <g transform="translate(14.5, 12.5)">
              <text x="0" y="16" font-family="Hind" font-size="16" font-weight="700" fill="#FFFFFF">✓</text>
            </g>
          </g>
          <g transform="translate(68, 8.5)">
            <g>
              <g>
                <text x="0" y="14" font-family="Hind" font-size="14" font-weight="700" fill="#384959">TMT Bar 12 mm</text>
              </g>
              <g transform="translate(237, 0)">
                <rect width="41" height="26" rx="999" ry="999" fill="#FFF1D8"/>
                <g transform="translate(8, 4)">
                  <text x="0" y="11" font-family="Hind" font-size="11" font-weight="700" fill="#9A610A">LOW</text>
                </g>
              </g>
            </g>
            <g transform="translate(0, 30)">
              <text x="0" y="11" font-family="Hind" font-size="11" fill="#526D82">SKU TMT-FE5-12 · ₹64/kg</text>
            </g>
            <g transform="translate(0, 52)">
              <text x="0" y="12" font-family="Hind" font-size="12" font-weight="600" fill="#9A610A">Stock 18 · Reorder at 24</text>
            </g>
          </g>
        </g>
        <g transform="translate(0, 192)">
          <rect width="358" height="96" rx="12" ry="12" fill="#FDECEB" stroke="#B42318" stroke-width="1"/>
          <g transform="translate(12, 26)">
            <rect width="44" height="44" rx="8" ry="8" fill="#FFFFFF"/>
            <g transform="translate(19.5, 12.5)">
              <text x="0" y="16" font-family="Hind" font-size="16" font-weight="700" fill="#B42318">!</text>
            </g>
          </g>
          <g transform="translate(68, 13)">
            <g>
              <g>
                <text x="0" y="14" font-family="Hind" font-size="14" font-weight="700" fill="#384959">PVC Pipe 2 inch</text>
              </g>
              <g transform="translate(167, 0)">
                <rect width="51" height="26" rx="999" ry="999" fill="#FFFFFF"/>
                <g transform="translate(8, 4)">
                  <text x="0" y="11" font-family="Hind" font-size="11" font-weight="700" fill="#B42318">ERROR</text>
                </g>
              </g>
            </g>
            <g transform="translate(0, 30)">
              <text x="0" y="11" font-family="Hind" font-size="11" fill="#526D82">SKU PVC-SCH40-2 · Price missing</text>
            </g>
            <g transform="translate(0, 52)">
              <text x="0" y="11" font-family="Hind" font-size="11" font-weight="600" fill="#B42318">Add GST price before publishing</text>
            </g>
          </g>
          <g transform="translate(298, 26)">
            <rect width="48" height="44" rx="8" ry="8" fill="#FFFFFF" stroke="#748EAA" stroke-width="1"/>
            <g transform="translate(13, 12.5)">
              <text x="0" y="12" font-family="Hind" font-size="12" font-weight="700" fill="#384959">Edit</text>
            </g>
          </g>
        </g>
        <g transform="translate(0, 296)">
          <rect width="358" height="48" rx="8" ry="8" fill="#FFFFFF"/>
          <g transform="translate(12, 8)">
            <rect width="32" height="32" rx="8" ry="8" fill="#DFE7F0"/>
          </g>
          <g transform="translate(52, 14)">
            <rect width="246" height="8" rx="4" ry="4" fill="#DFE7F0"/>
            <g transform="translate(0, 12)">
              <rect width="160" height="8" rx="4" ry="4" fill="#EAF3FE"/>
            </g>
          </g>
          <g transform="translate(220, 15)">
            <text x="0" y="11" font-family="Hind" font-size="11" font-weight="600" fill="#55708A">Loading</text>
          </g>
        </g>
      </g>
      <g transform="translate(16, 540)">
        <rect width="358" height="48" rx="8" ry="8" fill="#384959"/>
        <g transform="translate(0, 13)">
          <text x="0" y="14" font-family="Hind" font-size="14" font-weight="700" fill="#FFFFFF">Publish selected offers</text>
        </g>
      </g>
    </g>
    <g transform="translate(0, 780)">
      <rect width="390" height="64" fill="#FFFFFF" stroke="#DCE6F0" stroke-width="1"/>
      <g transform="translate(8, 8)">
        <g transform="translate(0, 15)">
          <text x="0" y="11" font-family="Hind" font-size="11" font-weight="600" fill="#55708A">Dashboard</text>
        </g>
      </g>
      <g transform="translate(103.5, 8)">
        <g transform="translate(0, 15)">
          <text x="0" y="11" font-family="Hind" font-size="11" font-weight="600" fill="#55708A">Orders</text>
        </g>
      </g>
      <g transform="translate(199, 8)">
        <rect width="87.5" height="48" rx="8" ry="8" fill="#EAF3FE"/>
        <g transform="translate(0, 15)">
          <text x="0" y="11" font-family="Hind" font-size="11" font-weight="700" fill="#384959">Catalogue</text>
        </g>
      </g>
      <g transform="translate(294.5, 8)">
        <g transform="translate(0, 15)">
          <text x="0" y="11" font-family="Hind" font-size="11" font-weight="600" fill="#55708A">Account</text>
        </g>
      </g>
    </g>
  </g>
</svg>