<?xml version="1.0" encoding="UTF-8"?>
<svg xmlns="http://www.w3.org/2000/svg" xmlns:xlink="http://www.w3.org/1999/xlink" width="390" height="2152" viewBox="0 0 390 2152">
  <defs>
    <filter id="fx0">
      <feDropShadow dx="0" dy="1" stdDeviation="1.5" flood-color="#384959" flood-opacity="0.08"/>
    </filter>
    <filter id="fx1">
      <feDropShadow dx="0" dy="1" stdDeviation="1.5" flood-color="#384959" flood-opacity="0.08"/>
    </filter>
    <clipPath id="clip2">
      <rect width="358" height="210"/>
    </clipPath>
    <filter id="fx3">
      <feDropShadow dx="0" dy="1" stdDeviation="1.5" flood-color="#384959" flood-opacity="0.08"/>
    </filter>
    <clipPath id="clip4">
      <rect width="173" height="210"/>
    </clipPath>
    <clipPath id="clip5">
      <rect width="173" height="90"/>
    </clipPath>
    <filter id="fx6">
      <feDropShadow dx="0" dy="1" stdDeviation="1.5" flood-color="#384959" flood-opacity="0.08"/>
    </filter>
    <clipPath id="clip7">
      <rect width="173" height="210"/>
    </clipPath>
    <clipPath id="clip8">
      <rect width="173" height="90"/>
    </clipPath>
    <filter id="fx9">
      <feDropShadow dx="0" dy="1" stdDeviation="1.5" flood-color="#384959" flood-opacity="0.08"/>
    </filter>
    <clipPath id="clip10">
      <rect width="173" height="210"/>
    </clipPath>
    <clipPath id="clip11">
      <rect width="173" height="90"/>
    </clipPath>
    <clipPath id="clip12">
      <rect width="173" height="160"/>
    </clipPath>
    <clipPath id="clip13">
      <rect width="173" height="160"/>
    </clipPath>
    <filter id="fx14">
      <feDropShadow dx="0" dy="1" stdDeviation="1.5" flood-color="#384959" flood-opacity="0.08"/>
    </filter>
    <clipPath id="clip15">
      <rect width="173" height="210"/>
    </clipPath>
    <clipPath id="clip16">
      <rect width="173" height="90"/>
    </clipPath>
    <filter id="fx17">
      <feDropShadow dx="0" dy="1" stdDeviation="1.5" flood-color="#384959" flood-opacity="0.08"/>
    </filter>
    <clipPath id="clip18">
      <rect width="173" height="210"/>
    </clipPath>
    <clipPath id="clip19">
      <rect width="173" height="90"/>
    </clipPath>
    <clipPath id="clip20">
      <rect width="358" height="48"/>
    </clipPath>
    <filter id="fx21">
      <feDropShadow dx="0" dy="1" stdDeviation="1.5" flood-color="#384959" flood-opacity="0.08"/>
    </filter>
    <clipPath id="clip22">
      <rect width="173" height="304"/>
    </clipPath>
    <clipPath id="clip23">
      <rect width="173" height="70"/>
    </clipPath>
    <filter id="fx24">
      <feDropShadow dx="0" dy="1" stdDeviation="1.5" flood-color="#384959" flood-opacity="0.08"/>
    </filter>
    <clipPath id="clip25">
      <rect width="173" height="304"/>
    </clipPath>
    <clipPath id="clip26">
      <rect width="173" height="70"/>
    </clipPath>
    <filter id="fx27">
      <feDropShadow dx="0" dy="1" stdDeviation="1.5" flood-color="#384959" flood-opacity="0.08"/>
    </filter>
    <clipPath id="clip28">
      <rect width="173" height="304"/>
    </clipPath>
    <clipPath id="clip29">
      <rect width="173" height="70"/>
    </clipPath>
    <filter id="fx30">
      <feDropShadow dx="0" dy="1" stdDeviation="1.5" flood-color="#384959" flood-opacity="0.08"/>
    </filter>
    <clipPath id="clip31">
      <rect width="173" height="304"/>
    </clipPath>
    <clipPath id="clip32">
      <rect width="173" height="70"/>
    </clipPath>
    <filter id="fx33">
      <feDropShadow dx="0" dy="1" stdDeviation="1.5" flood-color="#384959" flood-opacity="0.08"/>
    </filter>
  </defs>
  <g>
    <rect width="390" height="2148" fill="#F7FAFE"/>
    <g>
      <g transform="translate(8, 8)">
        <text x="0" y="11" font-family="Hind" font-size="11" font-weight="600" fill="#384959">9:41</text>
      </g>
      <g transform="translate(330, 8)">
        <text x="52" y="11" font-family="Hind" font-size="11" font-weight="600" fill="#384959" text-anchor="end">5G  100%</text>
      </g>
    </g>
    <g transform="translate(0, 34)">
      <rect width="390" height="84" fill="#384959"/>
      <g transform="translate(16, 16)">
        <text x="0" y="20" font-family="Hind" font-size="20" font-weight="700" fill="#FFFFFF">ApnaKart Trade</text>
      </g>
      <g transform="translate(16, 50)">
        <text x="0" y="11" font-family="Hind" font-size="11" fill="#BDDCFC">Sharma Electricals · 27AABCU9603R1Z5</text>
      </g>
      <g transform="translate(330, 20)">
        <rect width="44" height="44" rx="8" ry="8" fill="#273746"/>
        <g transform="translate(11, 11)">
          <path d="M0 13L12 13L10.5 10.5L10.5 5.5C10.5 2.5 8.5 0 6 0C3.5 0 1.5 2.5 1.5 5.5L1.5 10.5L0 13ZM4 16C4.3 16.8 5.1 17.3 6 17.3C6.9 17.3 7.7 16.8 8 16" fill="none" stroke="#FFFFFF" stroke-width="2" stroke-linecap="round" stroke-linejoin="round"/>
        </g>
      </g>
    </g>
    <g transform="translate(16, 134)">
      <text x="0" y="16" font-family="Hind" font-size="16" font-weight="700" fill="#384959">Quick order</text>
    </g>
    <g transform="translate(317, 138)">
      <text x="57" y="12" font-family="Hind" font-size="12" font-weight="600" fill="#456079" text-anchor="end">New list</text>
    </g>
    <g transform="translate(16, 168)">
      <rect width="358" height="56" rx="12" ry="12" fill="#FFFFFF" stroke="#DCE6F0" stroke-width="1"/>
      <g transform="translate(8, 6)">
        <rect width="96" height="44" rx="999" ry="999" fill="#88BDF2"/>
      </g>
      <g transform="translate(8, 19)">
        <text x="48" y="12" font-family="Hind" font-size="12" font-weight="600" fill="#384959" text-anchor="middle">All lists</text>
      </g>
      <g transform="translate(112, 6)">
        <rect width="75" height="44" rx="999" ry="999" fill="#EAF3FE"/>
      </g>
      <g transform="translate(112, 19)">
        <text x="37.5" y="12" font-family="Hind" font-size="12" font-weight="600" fill="#384959" text-anchor="middle">Drafts</text>
      </g>
      <g transform="translate(195, 6)">
        <rect width="82" height="44" rx="999" ry="999" fill="#EAF3FE"/>
      </g>
      <g transform="translate(195, 19)">
        <text x="41" y="12" font-family="Hind" font-size="12" font-weight="600" fill="#384959" text-anchor="middle">My SKUs</text>
      </g>
      <g transform="translate(326, 14)">
        <path d="M0 0L16 0M3 6L13 6M6 12L10 12" fill="none" stroke="#456079" stroke-width="2" stroke-linecap="round" stroke-linejoin="round"/>
      </g>
    </g>
    <g transform="translate(16, 236)" filter="url(#fx0)">
      <rect width="358" height="88" rx="12" ry="12" fill="#FFFFFF" stroke="#DCE6F0" stroke-width="1"/>
      <g transform="translate(12, 12)">
        <rect width="82" height="26" rx="4" ry="4" fill="#EAF3FE"/>
        <g transform="translate(4, 4)">
          <text x="0" y="11" font-family="Hind" font-size="11" font-weight="700" fill="#384959">SKU AK-1024</text>
        </g>
      </g>
      <g transform="translate(206, 16)">
        <text x="60" y="14" font-family="Hind" font-size="14" font-weight="700" fill="#384959" text-anchor="end">₹385/pc</text>
      </g>
      <g transform="translate(12, 46)">
        <text x="0" y="14" font-family="Hind" font-size="14" font-weight="600" fill="#384959">UltraTech OPC 53 Grade Cement</text>
      </g>
      <g transform="translate(274, 22)">
        <rect width="72" height="44" rx="8" ry="8" fill="#384959"/>
        <g transform="translate(0, 12)">
          <text x="36" y="12" font-family="Hind" font-size="12" font-weight="700" fill="#FFFFFF" text-anchor="middle">Add</text>
        </g>
      </g>
    </g>
    <g transform="translate(16, 332)" filter="url(#fx1)">
      <rect width="358" height="88" rx="12" ry="12" fill="#FFFFFF" stroke="#DCE6F0" stroke-width="1"/>
      <g transform="translate(12, 12)">
        <rect width="82" height="26" rx="4" ry="4" fill="#EAF3FE"/>
        <g transform="translate(4, 4)">
          <text x="0" y="11" font-family="Hind" font-size="11" font-weight="700" fill="#384959">SKU AK-2210</text>
        </g>
      </g>
      <g transform="translate(214, 16)">
        <text x="52" y="14" font-family="Hind" font-size="14" font-weight="700" fill="#384959" text-anchor="end">₹62/kg</text>
      </g>
      <g transform="translate(12, 46)">
        <text x="0" y="14" font-family="Hind" font-size="14" font-weight="600" fill="#384959">Tata Tiscon TMT Bar 12mm</text>
      </g>
      <g transform="translate(274, 22)">
        <rect width="72" height="44" rx="8" ry="8" fill="#384959"/>
        <g transform="translate(0, 12)">
          <text x="36" y="12" font-family="Hind" font-size="12" font-weight="700" fill="#FFFFFF" text-anchor="middle">Add</text>
        </g>
      </g>
    </g>
    <g transform="translate(16, 428)">
      <rect width="174" height="48" rx="8" ry="8" fill="none" stroke="#748EAA" stroke-width="1"/>
      <g transform="translate(0, 13)">
        <text x="87" y="14" font-family="Hind" font-size="14" font-weight="700" fill="#384959" text-anchor="middle">View more</text>
      </g>
    </g>
    <g transform="translate(200, 428)">
      <rect width="174" height="48" rx="8" ry="8" fill="#384959"/>
      <g transform="translate(0, 13)">
        <text x="87" y="14" font-family="Hind" font-size="14" font-weight="700" fill="#FFFFFF" text-anchor="middle">Add to order</text>
      </g>
    </g>
    <g transform="translate(16, 492)">
      <text x="0" y="16" font-family="Hind" font-size="16" font-weight="700" fill="#384959">Buy again</text>
    </g>
    <g transform="translate(324, 496)">
      <text x="50" y="12" font-family="Hind" font-size="12" font-weight="600" fill="#456079" text-anchor="end">See all</text>
    </g>
    <g transform="translate(16, 526)">
      <g clip-path="url(#clip2)">
        <g filter="url(#fx3)">
          <rect width="173" height="210" rx="12" ry="12" fill="#FFFFFF" stroke="#DCE6F0" stroke-width="1"/>
          <g clip-path="url(#clip4)">
            <g>
              <path d="M12 0L161 0A12 12 0 0 1 173 12L173 90L0 90L0 12A12 12 0 0 1 12 0Z" fill="#EAF3FE"/>
              <g clip-path="url(#clip5)">
                <g transform="translate(71, 29)">
                  <rect width="32" height="24" rx="4" ry="4" fill="none" stroke="#55708A" stroke-width="1.5"/>
                </g>
                <g transform="translate(82, 40)">
                  <ellipse cx="5" cy="5" rx="5" ry="5" fill="#55708A"/>
                </g>
                <g transform="translate(0, 68)">
                  <text x="86.5" y="11" font-family="Hind" font-size="11" font-weight="600" fill="#55708A" text-anchor="middle">SAMPLE</text>
                </g>
              </g>
            </g>
            <g transform="translate(12, 102)">
              <text x="0" y="14" font-family="Hind" font-size="14" font-weight="600" fill="#384959">Bib Cock 15mm</text>
            </g>
            <g transform="translate(12, 128)">
              <text x="0" y="11" font-family="Hind" font-size="11" fill="#55708A">Last: ₹432/pc · 12 Sep</text>
            </g>
            <g transform="translate(12, 154)">
              <rect width="149" height="44" rx="8" ry="8" fill="#BDDCFC"/>
              <g transform="translate(0, 12)">
                <text x="74.5" y="12" font-family="Hind" font-size="12" font-weight="700" fill="#384959" text-anchor="middle">Reorder</text>
              </g>
            </g>
          </g>
        </g>
        <g transform="translate(185, 0)" filter="url(#fx6)">
          <rect width="173" height="210" rx="12" ry="12" fill="#FFFFFF" stroke="#DCE6F0" stroke-width="1"/>
          <g clip-path="url(#clip7)">
            <g>
              <path d="M12 0L161 0A12 12 0 0 1 173 12L173 90L0 90L0 12A12 12 0 0 1 12 0Z" fill="#EAF3FE"/>
              <g clip-path="url(#clip8)">
                <g transform="translate(71, 29)">
                  <rect width="32" height="24" rx="4" ry="4" fill="none" stroke="#55708A" stroke-width="1.5"/>
                </g>
                <g transform="translate(82, 40)">
                  <ellipse cx="5" cy="5" rx="5" ry="5" fill="#55708A"/>
                </g>
                <g transform="translate(0, 68)">
                  <text x="86.5" y="11" font-family="Hind" font-size="11" font-weight="600" fill="#55708A" text-anchor="middle">SAMPLE</text>
                </g>
              </g>
            </g>
            <g transform="translate(12, 102)">
              <text x="0" y="14" font-family="Hind" font-size="14" font-weight="600" fill="#384959">Havells Wire 1.5mm</text>
            </g>
            <g transform="translate(12, 128)">
              <text x="0" y="11" font-family="Hind" font-size="11" fill="#55708A">Last: ₹1,120/roll · 8 Sep</text>
            </g>
            <g transform="translate(12, 154)">
              <rect width="149" height="44" rx="8" ry="8" fill="#BDDCFC"/>
              <g transform="translate(0, 12)">
                <text x="74.5" y="12" font-family="Hind" font-size="12" font-weight="700" fill="#384959" text-anchor="middle">Reorder</text>
              </g>
            </g>
          </g>
        </g>
        <g transform="translate(370, 0)" filter="url(#fx9)">
          <rect width="173" height="210" rx="12" ry="12" fill="#FFFFFF" stroke="#DCE6F0" stroke-width="1"/>
          <g clip-path="url(#clip10)">
            <g>
              <path d="M12 0L161 0A12 12 0 0 1 173 12L173 90L0 90L0 12A12 12 0 0 1 12 0Z" fill="#EAF3FE"/>
              <g clip-path="url(#clip11)">
                <g transform="translate(71, 29)">
                  <rect width="32" height="24" rx="4" ry="4" fill="none" stroke="#55708A" stroke-width="1.5"/>
                </g>
                <g transform="translate(82, 40)">
                  <ellipse cx="5" cy="5" rx="5" ry="5" fill="#55708A"/>
                </g>
                <g transform="translate(0, 68)">
                  <text x="86.5" y="11" font-family="Hind" font-size="11" font-weight="600" fill="#55708A" text-anchor="middle">SAMPLE</text>
                </g>
              </g>
            </g>
            <g transform="translate(12, 102)">
              <text x="0" y="14" font-family="Hind" font-size="14" font-weight="600" fill="#384959">Astral CPVC 1in</text>
            </g>
            <g transform="translate(12, 128)">
              <text x="0" y="11" font-family="Hind" font-size="11" fill="#55708A">Last: ₹410/pc · 2 Sep</text>
            </g>
            <g transform="translate(12, 154)">
              <rect width="149" height="44" rx="8" ry="8" fill="#BDDCFC"/>
              <g transform="translate(0, 12)">
                <text x="74.5" y="12" font-family="Hind" font-size="12" font-weight="700" fill="#384959" text-anchor="middle">Reorder</text>
              </g>
            </g>
          </g>
        </g>
      </g>
    </g>
    <g transform="translate(16, 852)">
      <text x="0" y="16" font-family="Hind" font-size="16" font-weight="700" fill="#384959">Trade Offers &amp; Deals</text>
    </g>
    <g transform="translate(324, 856)">
      <text x="50" y="12" font-family="Hind" font-size="12" font-weight="600" fill="#456079" text-anchor="end">See all</text>
    </g>
    <g transform="translate(16, 886)">
      <rect width="173" height="160" rx="12" ry="12" fill="#BDDCFC"/>
      <g clip-path="url(#clip12)">
        <g transform="translate(12, 12)">
          <rect width="149" height="136" rx="8" ry="8" fill="#FFFFFF"/>
          <g transform="translate(12, 12)">
            <text x="0" y="11" font-family="Hind" font-size="11" font-weight="700" fill="#456079">TRADE OFFER</text>
          </g>
          <g transform="translate(12, 34)">
            <text x="0" y="16" font-family="Hind" font-size="16" font-weight="700" fill="#384959">Save 12%</text>
          </g>
          <g transform="translate(12, 64)">
            <text x="0" y="12" font-family="Hind" font-size="12" fill="#384959">On 50+ bag cement orders.</text>
          </g>
          <g transform="translate(12, 124)">
            <text x="0" y="12" font-family="Hind" font-size="12" font-weight="700" fill="#384959">Shop cement</text>
          </g>
        </g>
      </g>
    </g>
    <g transform="translate(201, 886)">
      <rect width="173" height="160" rx="12" ry="12" fill="#BDDCFC"/>
      <g clip-path="url(#clip13)">
        <g transform="translate(12, 12)">
          <rect width="149" height="136" rx="8" ry="8" fill="#FFFFFF"/>
          <g transform="translate(12, 12)">
            <text x="0" y="11" font-family="Hind" font-size="11" font-weight="700" fill="#456079">BULK DEAL</text>
          </g>
          <g transform="translate(12, 34)">
            <text x="0" y="16" font-family="Hind" font-size="16" font-weight="700" fill="#384959">Steel @ ₹58/kg</text>
          </g>
          <g transform="translate(12, 64)">
            <text x="0" y="12" font-family="Hind" font-size="12" fill="#384959">On 5 tonne+ TMT orders.</text>
          </g>
          <g transform="translate(12, 124)">
            <text x="0" y="12" font-family="Hind" font-size="12" font-weight="700" fill="#384959">Shop steel</text>
          </g>
        </g>
      </g>
    </g>
    <g transform="translate(16, 1038)" filter="url(#fx14)">
      <rect width="173" height="210" rx="12" ry="12" fill="#FFFFFF" stroke="#DCE6F0" stroke-width="1"/>
      <g clip-path="url(#clip15)">
        <g>
          <path d="M12 0L161 0A12 12 0 0 1 173 12L173 90L0 90L0 12A12 12 0 0 1 12 0Z" fill="#EAF3FE"/>
          <g clip-path="url(#clip16)">
            <g transform="translate(71, 29)">
              <rect width="32" height="24" rx="4" ry="4" fill="none" stroke="#55708A" stroke-width="1.5"/>
            </g>
            <g transform="translate(82, 40)">
              <ellipse cx="5" cy="5" rx="5" ry="5" fill="#55708A"/>
            </g>
            <g transform="translate(0, 68)">
              <text x="86.5" y="11" font-family="Hind" font-size="11" font-weight="600" fill="#55708A" text-anchor="middle">SAMPLE</text>
            </g>
          </g>
        </g>
        <g transform="translate(12, 102)">
          <text x="0" y="14" font-family="Hind" font-size="14" font-weight="600" fill="#384959">OPC 53 Grade Cement</text>
        </g>
        <g transform="translate(12, 128)">
          <text x="0" y="11" font-family="Hind" font-size="11" fill="#55708A">Last: ₹372/bag · 24 Sep</text>
        </g>
        <g transform="translate(12, 154)">
          <rect width="149" height="44" rx="8" ry="8" fill="#BDDCFC"/>
          <g transform="translate(0, 12)">
            <text x="74.5" y="12" font-family="Hind" font-size="12" font-weight="700" fill="#384959" text-anchor="middle">Reorder</text>
          </g>
        </g>
      </g>
    </g>
    <g transform="translate(201, 1038)" filter="url(#fx17)">
      <rect width="173" height="210" rx="12" ry="12" fill="#FFFFFF" stroke="#DCE6F0" stroke-width="1"/>
      <g clip-path="url(#clip18)">
        <g>
          <path d="M12 0L161 0A12 12 0 0 1 173 12L173 90L0 90L0 12A12 12 0 0 1 12 0Z" fill="#EAF3FE"/>
          <g clip-path="url(#clip19)">
            <g transform="translate(71, 29)">
              <rect width="32" height="24" rx="4" ry="4" fill="none" stroke="#55708A" stroke-width="1.5"/>
            </g>
            <g transform="translate(82, 40)">
              <ellipse cx="5" cy="5" rx="5" ry="5" fill="#55708A"/>
            </g>
            <g transform="translate(0, 68)">
              <text x="86.5" y="11" font-family="Hind" font-size="11" font-weight="600" fill="#55708A" text-anchor="middle">SAMPLE</text>
            </g>
          </g>
        </g>
        <g transform="translate(12, 102)">
          <text x="0" y="14" font-family="Hind" font-size="14" font-weight="600" fill="#384959">TMT Bar 12mm</text>
        </g>
        <g transform="translate(12, 128)">
          <text x="0" y="11" font-family="Hind" font-size="11" fill="#55708A">Last: ₹58/kg · 20 Sep</text>
        </g>
        <g transform="translate(12, 154)">
          <rect width="149" height="44" rx="8" ry="8" fill="#BDDCFC"/>
          <g transform="translate(0, 12)">
            <text x="74.5" y="12" font-family="Hind" font-size="12" font-weight="700" fill="#384959" text-anchor="middle">Reorder</text>
          </g>
        </g>
      </g>
    </g>
    <g transform="translate(16, 1264)">
      <g clip-path="url(#clip20)">
        <g transform="translate(0, 2)">
          <rect width="54" height="44" rx="999" ry="999" fill="#88BDF2"/>
        </g>
        <g transform="translate(0, 15)">
          <text x="27" y="12" font-family="Hind" font-size="12" font-weight="600" fill="#384959" text-anchor="middle">All</text>
        </g>
        <g transform="translate(62, 2)">
          <rect width="75" height="44" rx="999" ry="999" fill="#EAF3FE"/>
        </g>
        <g transform="translate(62, 15)">
          <text x="37.5" y="12" font-family="Hind" font-size="12" font-weight="600" fill="#384959" text-anchor="middle">Cement</text>
        </g>
        <g transform="translate(145, 2)">
          <rect width="68" height="44" rx="999" ry="999" fill="#EAF3FE"/>
        </g>
        <g transform="translate(145, 15)">
          <text x="34" y="12" font-family="Hind" font-size="12" font-weight="600" fill="#384959" text-anchor="middle">Steel</text>
        </g>
        <g transform="translate(221, 2)">
          <rect width="110" height="44" rx="999" ry="999" fill="#EAF3FE"/>
        </g>
        <g transform="translate(221, 15)">
          <text x="55" y="12" font-family="Hind" font-size="12" font-weight="600" fill="#384959" text-anchor="middle">Electricals</text>
        </g>
        <g transform="translate(339, 2)">
          <rect width="89" height="44" rx="999" ry="999" fill="#EAF3FE"/>
        </g>
        <g transform="translate(339, 15)">
          <text x="44.5" y="12" font-family="Hind" font-size="12" font-weight="600" fill="#384959" text-anchor="middle">Sanitary</text>
        </g>
        <g transform="translate(436, 2)">
          <rect width="75" height="44" rx="999" ry="999" fill="#EAF3FE"/>
        </g>
        <g transform="translate(436, 15)">
          <text x="37.5" y="12" font-family="Hind" font-size="12" font-weight="600" fill="#384959" text-anchor="middle">Paints</text>
        </g>
      </g>
    </g>
    <g transform="translate(16, 1320)" filter="url(#fx21)">
      <rect width="173" height="304" rx="12" ry="12" fill="#FFFFFF" stroke="#DCE6F0" stroke-width="1"/>
      <g clip-path="url(#clip22)">
        <g>
          <path d="M12 0L161 0A12 12 0 0 1 173 12L173 70L0 70L0 12A12 12 0 0 1 12 0Z" fill="#EAF3FE"/>
          <g clip-path="url(#clip23)">
            <g transform="translate(71, 19)">
              <rect width="32" height="24" rx="4" ry="4" fill="none" stroke="#55708A" stroke-width="1.5"/>
            </g>
            <g transform="translate(82, 30)">
              <ellipse cx="5" cy="5" rx="5" ry="5" fill="#55708A"/>
            </g>
            <g transform="translate(0, 48)">
              <text x="86.5" y="11" font-family="Hind" font-size="11" font-weight="600" fill="#55708A" text-anchor="middle">SAMPLE</text>
            </g>
          </g>
        </g>
        <g transform="translate(12, 82)">
          <rect width="69" height="26" rx="4" ry="4" fill="#EAF3FE"/>
          <g transform="translate(4, 4)">
            <text x="0" y="11" font-family="Hind" font-size="11" font-weight="700" fill="#384959">B2B TRADE</text>
          </g>
        </g>
        <g transform="translate(89, 82)">
          <rect width="60" height="26" rx="4" ry="4" fill="#E5F5ED"/>
          <g transform="translate(4, 4)">
            <text x="0" y="11" font-family="Hind" font-size="11" font-weight="600" fill="#067647">In stock</text>
          </g>
        </g>
        <g transform="translate(12, 116)">
          <text x="0" y="11" font-family="Hind" font-size="11" font-weight="600" fill="#456079">ULTRATECH</text>
        </g>
        <g transform="translate(12, 140)">
          <text x="0" y="14" font-family="Hind" font-size="14" font-weight="600" fill="#384959">OPC 53 Grade Cement</text>
        </g>
        <g transform="translate(12, 170)">
          <text x="0" y="16" font-family="Hind" font-size="16" font-weight="700" fill="#384959">₹385</text>
        </g>
        <g transform="translate(58, 174)">
          <text x="0" y="11" font-family="Hind" font-size="11" fill="#55708A">/bag</text>
        </g>
        <g transform="translate(91, 174)">
          <text x="0" y="11" font-family="Hind" font-size="11" fill="#55708A">₹460</text>
        </g>
        <g transform="translate(12, 204)">
          <rect width="149" height="34" rx="8" ry="8" fill="#EAF3FE"/>
          <g transform="translate(8, 8)">
            <text x="0" y="11" font-family="Hind" font-size="11" font-weight="700" fill="#384959">MOQ 20</text>
          </g>
          <g transform="translate(57, 8)">
            <text x="0" y="11" font-family="Hind" font-size="11" fill="#456079">10+ bags: ₹372</text>
          </g>
        </g>
        <g transform="translate(12, 246)">
          <g>
            <rect width="70" height="44" rx="8" ry="8" fill="#BDDCFC"/>
            <g transform="translate(0, 12)">
              <text x="35" y="12" font-family="Hind" font-size="12" font-weight="700" fill="#384959" text-anchor="middle">RFQ</text>
            </g>
          </g>
          <g transform="translate(78, 0)">
            <rect width="71" height="44" rx="8" ry="8" fill="#384959"/>
            <g transform="translate(0, 12)">
              <text x="35.5" y="12" font-family="Hind" font-size="12" font-weight="700" fill="#FFFFFF" text-anchor="middle">Add to order</text>
            </g>
          </g>
        </g>
      </g>
    </g>
    <g transform="translate(201, 1320)" filter="url(#fx24)">
      <rect width="173" height="304" rx="12" ry="12" fill="#FFFFFF" stroke="#DCE6F0" stroke-width="1"/>
      <g clip-path="url(#clip25)">
        <g>
          <path d="M12 0L161 0A12 12 0 0 1 173 12L173 70L0 70L0 12A12 12 0 0 1 12 0Z" fill="#EAF3FE"/>
          <g clip-path="url(#clip26)">
            <g transform="translate(71, 19)">
              <rect width="32" height="24" rx="4" ry="4" fill="none" stroke="#55708A" stroke-width="1.5"/>
            </g>
            <g transform="translate(82, 30)">
              <ellipse cx="5" cy="5" rx="5" ry="5" fill="#55708A"/>
            </g>
            <g transform="translate(0, 48)">
              <text x="86.5" y="11" font-family="Hind" font-size="11" font-weight="600" fill="#55708A" text-anchor="middle">SAMPLE</text>
            </g>
          </g>
        </g>
        <g transform="translate(12, 82)">
          <rect width="69" height="26" rx="4" ry="4" fill="#EAF3FE"/>
          <g transform="translate(4, 4)">
            <text x="0" y="11" font-family="Hind" font-size="11" font-weight="700" fill="#384959">B2B TRADE</text>
          </g>
        </g>
        <g transform="translate(89, 82)">
          <rect width="60" height="26" rx="4" ry="4" fill="#E5F5ED"/>
          <g transform="translate(4, 4)">
            <text x="0" y="11" font-family="Hind" font-size="11" font-weight="600" fill="#067647">In stock</text>
          </g>
        </g>
        <g transform="translate(12, 116)">
          <text x="0" y="11" font-family="Hind" font-size="11" font-weight="600" fill="#456079">TATA TISCON</text>
        </g>
        <g transform="translate(12, 140)">
          <text x="0" y="14" font-family="Hind" font-size="14" font-weight="600" fill="#384959">TMT Bar 12mm</text>
        </g>
        <g transform="translate(12, 170)">
          <text x="0" y="16" font-family="Hind" font-size="16" font-weight="700" fill="#384959">₹62</text>
        </g>
        <g transform="translate(48, 174)">
          <text x="0" y="11" font-family="Hind" font-size="11" fill="#55708A">/kg</text>
        </g>
        <g transform="translate(75, 174)">
          <text x="0" y="11" font-family="Hind" font-size="11" fill="#55708A">₹74</text>
        </g>
        <g transform="translate(12, 204)">
          <rect width="149" height="34" rx="8" ry="8" fill="#EAF3FE"/>
          <g transform="translate(8, 8)">
            <text x="0" y="11" font-family="Hind" font-size="11" font-weight="700" fill="#384959">MOQ 100</text>
          </g>
          <g transform="translate(63, 8)">
            <text x="0" y="11" font-family="Hind" font-size="11" fill="#456079">500+ kg: ₹58</text>
          </g>
        </g>
        <g transform="translate(12, 246)">
          <g>
            <rect width="70" height="44" rx="8" ry="8" fill="#BDDCFC"/>
            <g transform="translate(0, 12)">
              <text x="35" y="12" font-family="Hind" font-size="12" font-weight="700" fill="#384959" text-anchor="middle">RFQ</text>
            </g>
          </g>
          <g transform="translate(78, 0)">
            <rect width="71" height="44" rx="8" ry="8" fill="#384959"/>
            <g transform="translate(0, 12)">
              <text x="35.5" y="12" font-family="Hind" font-size="12" font-weight="700" fill="#FFFFFF" text-anchor="middle">Add to order</text>
            </g>
          </g>
        </g>
      </g>
    </g>
    <g transform="translate(16, 1632)" filter="url(#fx27)">
      <rect width="173" height="304" rx="12" ry="12" fill="#FFFFFF" stroke="#DCE6F0" stroke-width="1"/>
      <g clip-path="url(#clip28)">
        <g>
          <path d="M12 0L161 0A12 12 0 0 1 173 12L173 70L0 70L0 12A12 12 0 0 1 12 0Z" fill="#EAF3FE"/>
          <g clip-path="url(#clip29)">
            <g transform="translate(71, 19)">
              <rect width="32" height="24" rx="4" ry="4" fill="none" stroke="#55708A" stroke-width="1.5"/>
            </g>
            <g transform="translate(82, 30)">
              <ellipse cx="5" cy="5" rx="5" ry="5" fill="#55708A"/>
            </g>
            <g transform="translate(0, 48)">
              <text x="86.5" y="11" font-family="Hind" font-size="11" font-weight="600" fill="#55708A" text-anchor="middle">SAMPLE</text>
            </g>
          </g>
        </g>
        <g transform="translate(12, 82)">
          <rect width="69" height="26" rx="4" ry="4" fill="#EAF3FE"/>
          <g transform="translate(4, 4)">
            <text x="0" y="11" font-family="Hind" font-size="11" font-weight="700" fill="#384959">B2B TRADE</text>
          </g>
        </g>
        <g transform="translate(89, 82)">
          <rect width="60" height="26" rx="4" ry="4" fill="#E5F5ED"/>
          <g transform="translate(4, 4)">
            <text x="0" y="11" font-family="Hind" font-size="11" font-weight="600" fill="#067647">In stock</text>
          </g>
        </g>
        <g transform="translate(12, 116)">
          <text x="0" y="11" font-family="Hind" font-size="11" font-weight="600" fill="#456079">AMBUJA</text>
        </g>
        <g transform="translate(12, 140)">
          <text x="0" y="14" font-family="Hind" font-size="14" font-weight="600" fill="#384959">PPC Cement 50kg</text>
        </g>
        <g transform="translate(12, 170)">
          <text x="0" y="16" font-family="Hind" font-size="16" font-weight="700" fill="#384959">₹360</text>
        </g>
        <g transform="translate(58, 174)">
          <text x="0" y="11" font-family="Hind" font-size="11" fill="#55708A">/bag</text>
        </g>
        <g transform="translate(91, 174)">
          <text x="0" y="11" font-family="Hind" font-size="11" fill="#55708A">₹430</text>
        </g>
        <g transform="translate(12, 204)">
          <rect width="149" height="34" rx="8" ry="8" fill="#EAF3FE"/>
          <g transform="translate(8, 8)">
            <text x="0" y="11" font-family="Hind" font-size="11" font-weight="700" fill="#384959">MOQ 20</text>
          </g>
          <g transform="translate(57, 8)">
            <text x="0" y="11" font-family="Hind" font-size="11" fill="#456079">10+ bags: ₹348</text>
          </g>
        </g>
        <g transform="translate(12, 246)">
          <g>
            <rect width="70" height="44" rx="8" ry="8" fill="#BDDCFC"/>
            <g transform="translate(0, 12)">
              <text x="35" y="12" font-family="Hind" font-size="12" font-weight="700" fill="#384959" text-anchor="middle">RFQ</text>
            </g>
          </g>
          <g transform="translate(78, 0)">
            <rect width="71" height="44" rx="8" ry="8" fill="#384959"/>
            <g transform="translate(0, 12)">
              <text x="35.5" y="12" font-family="Hind" font-size="12" font-weight="700" fill="#FFFFFF" text-anchor="middle">Add to order</text>
            </g>
          </g>
        </g>
      </g>
    </g>
    <g transform="translate(201, 1632)" filter="url(#fx30)">
      <rect width="173" height="304" rx="12" ry="12" fill="#FFFFFF" stroke="#DCE6F0" stroke-width="1"/>
      <g clip-path="url(#clip31)">
        <g>
          <path d="M12 0L161 0A12 12 0 0 1 173 12L173 70L0 70L0 12A12 12 0 0 1 12 0Z" fill="#EAF3FE"/>
          <g clip-path="url(#clip32)">
            <g transform="translate(71, 19)">
              <rect width="32" height="24" rx="4" ry="4" fill="none" stroke="#55708A" stroke-width="1.5"/>
            </g>
            <g transform="translate(82, 30)">
              <ellipse cx="5" cy="5" rx="5" ry="5" fill="#55708A"/>
            </g>
            <g transform="translate(0, 48)">
              <text x="86.5" y="11" font-family="Hind" font-size="11" font-weight="600" fill="#55708A" text-anchor="middle">SAMPLE</text>
            </g>
          </g>
        </g>
        <g transform="translate(12, 82)">
          <rect width="69" height="26" rx="4" ry="4" fill="#EAF3FE"/>
          <g transform="translate(4, 4)">
            <text x="0" y="11" font-family="Hind" font-size="11" font-weight="700" fill="#384959">B2B TRADE</text>
          </g>
        </g>
        <g transform="translate(89, 82)">
          <rect width="66" height="26" rx="4" ry="4" fill="#E5F5ED"/>
          <g transform="translate(4, 4)">
            <text x="0" y="11" font-family="Hind" font-size="11" font-weight="600" fill="#067647">Low stock</text>
          </g>
        </g>
        <g transform="translate(12, 116)">
          <text x="0" y="11" font-family="Hind" font-size="11" font-weight="600" fill="#456079">JINDAL</text>
        </g>
        <g transform="translate(12, 140)">
          <text x="0" y="14" font-family="Hind" font-size="14" font-weight="600" fill="#384959">MS Angle 50x50</text>
        </g>
        <g transform="translate(12, 170)">
          <text x="0" y="16" font-family="Hind" font-size="16" font-weight="700" fill="#384959">₹54</text>
        </g>
        <g transform="translate(48, 174)">
          <text x="0" y="11" font-family="Hind" font-size="11" fill="#55708A">/kg</text>
        </g>
        <g transform="translate(75, 174)">
          <text x="0" y="11" font-family="Hind" font-size="11" fill="#55708A">₹66</text>
        </g>
        <g transform="translate(12, 204)">
          <rect width="149" height="34" rx="8" ry="8" fill="#EAF3FE"/>
          <g transform="translate(8, 8)">
            <text x="0" y="11" font-family="Hind" font-size="11" font-weight="700" fill="#384959">MOQ 50</text>
          </g>
          <g transform="translate(57, 8)">
            <text x="0" y="11" font-family="Hind" font-size="11" fill="#456079">100+ kg: ₹51</text>
          </g>
        </g>
        <g transform="translate(12, 246)">
          <g>
            <rect width="70" height="44" rx="8" ry="8" fill="#BDDCFC"/>
            <g transform="translate(0, 12)">
              <text x="35" y="12" font-family="Hind" font-size="12" font-weight="700" fill="#384959" text-anchor="middle">RFQ</text>
            </g>
          </g>
          <g transform="translate(78, 0)">
            <rect width="71" height="44" rx="8" ry="8" fill="#384959"/>
            <g transform="translate(0, 12)">
              <text x="35.5" y="12" font-family="Hind" font-size="12" font-weight="700" fill="#FFFFFF" text-anchor="middle">Add to order</text>
            </g>
          </g>
        </g>
      </g>
    </g>
    <g transform="translate(16, 1948)">
      <rect width="358" height="48" rx="8" ry="8" fill="#BDDCFC"/>
      <g transform="translate(0, 13)">
        <text x="179" y="14" font-family="Hind" font-size="14" font-weight="700" fill="#384959" text-anchor="middle">Load more products</text>
      </g>
    </g>
    <g transform="translate(16, 2008)" filter="url(#fx33)">
      <rect width="358" height="140" rx="12" ry="12" fill="#FFFFFF" stroke="#DCE6F0" stroke-width="1"/>
      <g transform="translate(16, 16)">
        <text x="0" y="16" font-family="Hind" font-size="16" font-weight="700" fill="#384959">Cart summary</text>
      </g>
      <g transform="translate(16, 20)">
        <text x="326" y="20" font-family="Hind" font-size="20" font-weight="700" fill="#384959" text-anchor="end">₹18,420</text>
      </g>
      <g transform="translate(16, 52)">
        <text x="0" y="12" font-family="Hind" font-size="12" fill="#456079">12 items · Incl. GST ₹2,340</text>
      </g>
      <g transform="translate(16, 76)">
        <rect width="326" height="48" rx="8" ry="8" fill="#384959"/>
        <g transform="translate(0, 13)">
          <text x="163" y="14" font-family="Hind" font-size="14" font-weight="700" fill="#FFFFFF" text-anchor="middle">Proceed to RFQ</text>
        </g>
      </g>
    </g>
    <g transform="translate(0, 844)">
      <rect width="8" height="1" fill="#6A89A7"/>
    </g>
    <g transform="translate(14, 844)">
      <rect width="8" height="1" fill="#6A89A7"/>
    </g>
    <g transform="translate(28, 844)">
      <rect width="8" height="1" fill="#6A89A7"/>
    </g>
    <g transform="translate(42, 844)">
      <rect width="8" height="1" fill="#6A89A7"/>
    </g>
    <g transform="translate(56, 844)">
      <rect width="8" height="1" fill="#6A89A7"/>
    </g>
    <g transform="translate(70, 844)">
      <rect width="8" height="1" fill="#6A89A7"/>
    </g>
    <g transform="translate(84, 844)">
      <rect width="8" height="1" fill="#6A89A7"/>
    </g>
    <g transform="translate(98, 844)">
      <rect width="8" height="1" fill="#6A89A7"/>
    </g>
    <g transform="translate(112, 844)">
      <rect width="8" height="1" fill="#6A89A7"/>
    </g>
    <g transform="translate(126, 844)">
      <rect width="8" height="1" fill="#6A89A7"/>
    </g>
    <g transform="translate(140, 844)">
      <rect width="8" height="1" fill="#6A89A7"/>
    </g>
    <g transform="translate(154, 844)">
      <rect width="8" height="1" fill="#6A89A7"/>
    </g>
    <g transform="translate(168, 844)">
      <rect width="8" height="1" fill="#6A89A7"/>
    </g>
    <g transform="translate(182, 844)">
      <rect width="8" height="1" fill="#6A89A7"/>
    </g>
    <g transform="translate(196, 844)">
      <rect width="8" height="1" fill="#6A89A7"/>
    </g>
    <g transform="translate(210, 844)">
      <rect width="8" height="1" fill="#6A89A7"/>
    </g>
    <g transform="translate(224, 844)">
      <rect width="8" height="1" fill="#6A89A7"/>
    </g>
    <g transform="translate(238, 844)">
      <rect width="8" height="1" fill="#6A89A7"/>
    </g>
    <g transform="translate(252, 844)">
      <rect width="8" height="1" fill="#6A89A7"/>
    </g>
    <g transform="translate(266, 844)">
      <rect width="8" height="1" fill="#6A89A7"/>
    </g>
    <g transform="translate(280, 844)">
      <rect width="8" height="1" fill="#6A89A7"/>
    </g>
    <g transform="translate(294, 844)">
      <rect width="8" height="1" fill="#6A89A7"/>
    </g>
    <g transform="translate(308, 844)">
      <rect width="8" height="1" fill="#6A89A7"/>
    </g>
    <g transform="translate(322, 844)">
      <rect width="8" height="1" fill="#6A89A7"/>
    </g>
    <g transform="translate(336, 844)">
      <rect width="8" height="1" fill="#6A89A7"/>
    </g>
    <g transform="translate(350, 844)">
      <rect width="8" height="1" fill="#6A89A7"/>
    </g>
    <g transform="translate(364, 844)">
      <rect width="8" height="1" fill="#6A89A7"/>
    </g>
    <g transform="translate(378, 844)">
      <rect width="8" height="1" fill="#6A89A7"/>
    </g>
    <g transform="translate(306, 848)">
      <text x="68" y="11" font-family="Hind" font-size="11" font-weight="700" fill="#6A89A7" text-anchor="end">FOLD · 844</text>
    </g>
    <g transform="translate(0, 780)">
      <rect width="390" height="64" fill="#FFFFFF" stroke="#DCE6F0" stroke-width="1"/>
      <g transform="translate(0, 8)">
        <g transform="translate(27, 1)">
          <path d="M0 7L8 0L16 7M2 6L2 16L14 16L14 6L2 6Z" fill="none" stroke="#384959" stroke-width="2.2" stroke-linecap="round" stroke-linejoin="round"/>
        </g>
        <g transform="translate(0, 29)">
          <text x="39" y="11" font-family="Hind" font-size="11" font-weight="700" fill="#384959" text-anchor="middle">Home</text>
        </g>
      </g>
      <g transform="translate(78, 8)">
        <g transform="translate(27, 1)">
          <path d="M0 0L7 0L7 7L0 7L0 0ZM9 0L16 0L16 7L9 7L9 0ZM0 9L7 9L7 16L0 16L0 9ZM9 9L16 9L16 16L9 16L9 9Z" fill="none" stroke="#55708A" stroke-width="1.8" stroke-linecap="round" stroke-linejoin="round"/>
        </g>
        <g transform="translate(0, 29)">
          <text x="39" y="11" font-family="Hind" font-size="11" font-weight="600" fill="#55708A" text-anchor="middle">Catalogue</text>
        </g>
      </g>
      <g transform="translate(156, 8)">
        <g transform="translate(27, 1)">
          <path d="M8 0L16 4L16 14L8 18L0 14L0 4L8 0ZM0 4L8 8L16 4M8 8L8 18" fill="none" stroke="#55708A" stroke-width="1.8" stroke-linecap="round" stroke-linejoin="round"/>
        </g>
        <g transform="translate(0, 29)">
          <text x="39" y="11" font-family="Hind" font-size="11" font-weight="600" fill="#55708A" text-anchor="middle">Orders</text>
        </g>
      </g>
      <g transform="translate(234, 8)">
        <g transform="translate(27, 1)">
          <path d="M0 0L3 0L5 11L14 11L16 3L3 3M6 15C6.6 15 7 14.6 7 14C7 13.4 6.6 13 6 13C5.4 13 5 13.4 5 14C5 14.6 5.4 15 6 15ZM13 15C13.6 15 14 14.6 14 14C14 13.4 13.6 13 13 13C12.4 13 12 13.4 12 14C12 14.6 12.4 15 13 15Z" fill="none" stroke="#55708A" stroke-width="1.8" stroke-linecap="round" stroke-linejoin="round"/>
        </g>
        <g transform="translate(0, 29)">
          <text x="39" y="11" font-family="Hind" font-size="11" font-weight="600" fill="#55708A" text-anchor="middle">Cart</text>
        </g>
      </g>
      <g transform="translate(312, 8)">
        <g transform="translate(27, 1)">
          <path d="M7 0C4.8 0 3 1.8 3 4C3 6.2 4.8 8 7 8C9.2 8 11 6.2 11 4C11 1.8 9.2 0 7 0ZM0 16C0 12.1 3.1 9 7 9C10.9 9 14 12.1 14 16" fill="none" stroke="#55708A" stroke-width="1.8" stroke-linecap="round" stroke-linejoin="round"/>
        </g>
        <g transform="translate(0, 29)">
          <text x="39" y="11" font-family="Hind" font-size="11" font-weight="600" fill="#55708A" text-anchor="middle">Account</text>
        </g>
      </g>
    </g>
  </g>
</svg>