<?xml version="1.0" encoding="UTF-8"?>
<svg xmlns="http://www.w3.org/2000/svg" xmlns:xlink="http://www.w3.org/1999/xlink" width="390" height="844" viewBox="0 0 390 844">
  <g>
    <rect width="390" height="844" fill="#F7FAFE"/>
    <g>
      <g transform="translate(8, 8)">
        <text x="0" y="11" font-family="Hind" font-size="11" font-weight="600" fill="#384959">9:41</text>
      </g>
      <g transform="translate(337, 8)">
        <text x="0" y="11" font-family="Hind" font-size="11" font-weight="600" fill="#384959">5G  100%</text>
      </g>
    </g>
    <g transform="translate(0, 34)">
      <rect width="390" height="64" fill="#384959"/>
      <g transform="translate(16, 20)">
        <path d="M15 5L8 12L15 19" fill="none" stroke="#FFFFFF" stroke-width="2.5"/>
      </g>
      <g transform="translate(52, 16)">
        <text x="0" y="20" font-family="Hind" font-size="20" font-weight="700" fill="#FFFFFF">Request for quote</text>
      </g>
    </g>
    <g transform="translate(0, 98)">
      <g transform="translate(16, 16)">
        <g>
          <text x="0" y="12" font-family="Hind" font-size="12" font-weight="600" fill="#456079">RFQ-2291 · Draft</text>
        </g>
        <g transform="translate(271, 0.5)">
          <text x="0" y="11" font-family="Hind" font-size="11" fill="#55708A">Quote valid 7 days</text>
        </g>
      </g>
      <g transform="translate(16, 47)">
        <rect width="358" height="139" rx="12" ry="12" fill="#FFFFFF" stroke="#DCE6F0" stroke-width="1"/>
        <g transform="translate(12, 12)">
          <g transform="translate(0, 0.5)">
            <text x="0" y="11" font-family="Hind" font-size="11" font-weight="600" fill="#456079">ULTRATECH</text>
          </g>
          <g transform="translate(291, 0)">
            <text x="0" y="12" font-family="Hind" font-size="12" font-weight="600" fill="#B42318">Remove</text>
          </g>
        </g>
        <g transform="translate(12, 39)">
          <text x="0" y="14" font-family="Hind" font-size="14" font-weight="600" fill="#384959">OPC 53 Grade Cement</text>
        </g>
        <g transform="translate(12, 69)">
          <g>
            <rect width="163" height="58" rx="8" ry="8" fill="#EAF3FE"/>
            <g transform="translate(8, 8)">
              <text x="0" y="11" font-family="Hind" font-size="11" font-weight="600" fill="#456079">Quantity</text>
            </g>
            <g transform="translate(8, 28)">
              <text x="0" y="14" font-family="Hind" font-size="14" font-weight="700" fill="#384959">200 bags</text>
            </g>
          </g>
          <g transform="translate(171, 0)">
            <rect width="163" height="58" rx="8" ry="8" fill="#EAF3FE"/>
            <g transform="translate(8, 8)">
              <text x="0" y="11" font-family="Hind" font-size="11" font-weight="600" fill="#456079">Target price</text>
            </g>
            <g transform="translate(8, 28)">
              <text x="0" y="14" font-family="Hind" font-size="14" font-weight="700" fill="#384959">₹372</text>
            </g>
          </g>
        </g>
      </g>
      <g transform="translate(16, 198)">
        <rect width="358" height="139" rx="12" ry="12" fill="#FFFFFF" stroke="#DCE6F0" stroke-width="1"/>
        <g transform="translate(12, 12)">
          <g transform="translate(0, 0.5)">
            <text x="0" y="11" font-family="Hind" font-size="11" font-weight="600" fill="#456079">TATA</text>
          </g>
          <g transform="translate(291, 0)">
            <text x="0" y="12" font-family="Hind" font-size="12" font-weight="600" fill="#B42318">Remove</text>
          </g>
        </g>
        <g transform="translate(12, 39)">
          <text x="0" y="14" font-family="Hind" font-size="14" font-weight="600" fill="#384959">TMT Steel Bar 12mm</text>
        </g>
        <g transform="translate(12, 69)">
          <g>
            <rect width="163" height="58" rx="8" ry="8" fill="#EAF3FE"/>
            <g transform="translate(8, 8)">
              <text x="0" y="11" font-family="Hind" font-size="11" font-weight="600" fill="#456079">Quantity</text>
            </g>
            <g transform="translate(8, 28)">
              <text x="0" y="14" font-family="Hind" font-size="14" font-weight="700" fill="#384959">5 tonnes</text>
            </g>
          </g>
          <g transform="translate(171, 0)">
            <rect width="163" height="58" rx="8" ry="8" fill="#EAF3FE"/>
            <g transform="translate(8, 8)">
              <text x="0" y="11" font-family="Hind" font-size="11" font-weight="600" fill="#456079">Target price</text>
            </g>
            <g transform="translate(8, 28)">
              <text x="0" y="14" font-family="Hind" font-size="14" font-weight="700" fill="#384959">₹58,400</text>
            </g>
          </g>
        </g>
      </g>
      <g transform="translate(16, 349)">
        <rect width="358" height="44" rx="8" ry="8" fill="#EAF3FE"/>
        <g transform="translate(0, 12.5)">
          <text x="0" y="12" font-family="Hind" font-size="12" font-weight="700" fill="#384959">+ Add another item</text>
        </g>
      </g>
      <g transform="translate(16, 405)">
        <rect width="358" height="126" rx="12" ry="12" fill="#FFFFFF" stroke="#DCE6F0" stroke-width="1"/>
        <g transform="translate(12, 12)">
          <text x="0" y="11" font-family="Hind" font-size="11" font-weight="600" fill="#456079">DELIVER TO SITE</text>
        </g>
        <g transform="translate(12, 38)">
          <text x="0" y="14" font-family="Hind" font-size="14" font-weight="700" fill="#384959">Andheri Metro Phase 2</text>
        </g>
        <g transform="translate(12, 68)">
          <text x="0" y="12" font-family="Hind" font-size="12" fill="#456079">Plot 14, MIDC, Andheri East, Mumbai 400093</text>
        </g>
        <g transform="translate(12, 95)">
          <text x="0" y="12" font-family="Hind" font-size="12" font-weight="700" fill="#384959">Change site</text>
        </g>
      </g>
      <g transform="translate(16, 543)">
        <rect width="358" height="69" rx="12" ry="12" fill="#FFFFFF" stroke="#DCE6F0" stroke-width="1"/>
        <g transform="translate(12, 12)">
          <text x="0" y="11" font-family="Hind" font-size="11" font-weight="600" fill="#456079">NOTES FOR SELLER</text>
        </g>
        <g transform="translate(12, 38)">
          <text x="0" y="12" font-family="Hind" font-size="12" fill="#55708A">Need delivery before 15 Oct. GST invoice required.</text>
        </g>
      </g>
    </g>
    <g transform="translate(0, 738)">
      <rect width="390" height="106" fill="#FFFFFF" stroke="#DCE6F0" stroke-width="1"/>
      <g transform="translate(16, 16)">
        <rect width="358" height="48" rx="8" ry="8" fill="#384959"/>
        <g transform="translate(0, 11)">
          <text x="0" y="16" font-family="Hind" font-size="16" font-weight="700" fill="#FFFFFF">Send RFQ to 3 sellers</text>
        </g>
      </g>
      <g transform="translate(16, 72)">
        <text x="0" y="11" font-family="Hind" font-size="11" fill="#55708A">Sellers respond with quotes you can compare.</text>
      </g>
    </g>
  </g>
</svg>