<?xml version="1.0" encoding="UTF-8"?>
<svg xmlns="http://www.w3.org/2000/svg" xmlns:xlink="http://www.w3.org/1999/xlink" width="390" height="844" viewBox="0 0 390 844">
  <g>
    <rect width="390" height="844" fill="#F7FAFE"/>
    <g>
      <g transform="translate(8, 8)">
        <text x="0" y="11" font-family="Hind" font-size="11" font-weight="600" fill="#384959">9:41</text>
      </g>
      <g transform="translate(337, 8)">
        <text x="0" y="11" font-family="Hind" font-size="11" font-weight="600" fill="#384959">5G  100%</text>
      </g>
    </g>
    <g transform="translate(0, 34)">
      <g transform="translate(16, 16)">
        <text x="0" y="20" font-family="Hind" font-size="20" font-weight="700" fill="#384959">ApnaKart Trade</text>
      </g>
      <g transform="translate(16, 86)">
        <text x="0" y="24" font-family="Hind" font-size="24" font-weight="700" fill="#384959">Verify your mobile</text>
      </g>
      <g transform="translate(16, 168)">
        <text x="0" y="14" font-family="Hind" font-size="14" fill="#456079">Enter the 6-digit code sent to +91 98••• ••210.</text>
      </g>
      <g transform="translate(16, 154)">
        <g>
          <rect width="48" height="52" rx="8" ry="8" fill="#FFFFFF" stroke="#748EAA" stroke-width="1"/>
          <g transform="translate(18, 14)">
            <text x="0" y="20" font-family="Hind" font-size="20" font-weight="700" fill="#384959">4</text>
          </g>
        </g>
        <g transform="translate(58, 0)">
          <rect width="48" height="52" rx="8" ry="8" fill="#FFFFFF" stroke="#748EAA" stroke-width="1"/>
          <g transform="translate(18.5, 14)">
            <text x="0" y="20" font-family="Hind" font-size="20" font-weight="700" fill="#384959">8</text>
          </g>
        </g>
        <g transform="translate(116, 0)">
          <rect width="48" height="52" rx="8" ry="8" fill="#FFFFFF" stroke="#748EAA" stroke-width="1"/>
          <g transform="translate(18.5, 14)">
            <text x="0" y="20" font-family="Hind" font-size="20" font-weight="700" fill="#384959">2</text>
          </g>
        </g>
        <g transform="translate(174, 0)">
          <rect width="48" height="52" rx="8" ry="8" fill="#FFFFFF" stroke="#748EAA" stroke-width="1"/>
          <g transform="translate(18.5, 14)">
            <text x="0" y="20" font-family="Hind" font-size="20" font-weight="700" fill="#384959">9</text>
          </g>
        </g>
        <g transform="translate(232, 0)">
          <rect width="48" height="52" rx="8" ry="8" fill="#FFFFFF" stroke="#748EAA" stroke-width="1"/>
          <g transform="translate(20, 14)">
            <text x="0" y="20" font-family="Hind" font-size="20" font-weight="700" fill="#384959">1</text>
          </g>
        </g>
        <g transform="translate(290, 0)">
          <rect width="48" height="52" rx="8" ry="8" fill="#FFFFFF" stroke="#748EAA" stroke-width="1"/>
          <g transform="translate(18.5, 14)">
            <text x="0" y="20" font-family="Hind" font-size="20" font-weight="700" fill="#384959">6</text>
          </g>
        </g>
      </g>
      <g transform="translate(16, 275)">
        <text x="0" y="12" font-family="Hind" font-size="12" fill="#456079">Code expires in 01:42</text>
      </g>
      <g transform="translate(16, 257)">
        <rect width="358" height="60" rx="8" ry="8" fill="#E7F1FF"/>
        <g transform="translate(12, 12)">
          <text x="0" y="12" font-family="Hind" font-size="12" fill="#175CD3">Business account verification keeps trade pricing and credit secure.</text>
        </g>
      </g>
    </g>
    <g transform="translate(0, 367)">
      <g transform="translate(16, 351)">
        <rect width="358" height="48" rx="8" ry="8" fill="#384959"/>
        <g transform="translate(0, 12.5)">
          <text x="179" y="16" font-family="Hind" font-size="16" font-weight="700" fill="#FFFFFF" text-anchor="middle">Verify &amp; continue</text>
        </g>
      </g>
      <g transform="translate(16, 352)">
        <text x="179" y="12" font-family="Hind" font-size="12" fill="#456079" text-anchor="middle">Didn’t receive it? Resend in 42 sec</text>
      </g>
      <g transform="translate(16, 381)">
        <text x="179" y="12" font-family="Hind" font-size="12" font-weight="600" fill="#384959" text-anchor="middle">Change mobile number</text>
      </g>
    </g>
  </g>
</svg>