<?xml version="1.0" encoding="UTF-8"?>
<svg xmlns="http://www.w3.org/2000/svg" xmlns:xlink="http://www.w3.org/1999/xlink" width="390" height="844" viewBox="0 0 390 844">
  <g>
    <rect width="390" height="844" fill="#F7FAFE"/>
    <g>
      <g transform="translate(8, 8)">
        <text x="0" y="11" font-family="Hind" font-size="11" fill="#384959">9:41</text>
      </g>
      <g transform="translate(338, 8)">
        <text x="0" y="11" font-family="Hind" font-size="11" fill="#384959">5G  100%</text>
      </g>
    </g>
    <g transform="translate(0, 34)">
      <g transform="translate(16, 16)">
        <text x="0" y="20" font-family="Hind" font-size="20" font-weight="700" fill="#384959">GST invoices</text>
      </g>
      <g transform="translate(317, 27)">
        <text x="0" y="12" font-family="Hind" font-size="12" font-weight="600" fill="#384959">Sep 2026⌄</text>
      </g>
    </g>
    <g transform="translate(0, 98)">
      <g transform="translate(16, 16)">
        <g>
          <rect width="173" height="78" rx="8" ry="8" fill="#EAF3FE"/>
          <g transform="translate(12, 12)">
            <text x="0" y="11" font-family="Hind" font-size="11" fill="#456079">TAXABLE VALUE</text>
          </g>
          <g transform="translate(12, 46)">
            <text x="0" y="20" font-family="Hind" font-size="20" font-weight="700" fill="#384959">₹3.42L</text>
          </g>
        </g>
        <g transform="translate(185, 0)">
          <rect width="173" height="78" rx="8" ry="8" fill="#EAF3FE"/>
          <g transform="translate(12, 12)">
            <text x="0" y="11" font-family="Hind" font-size="11" fill="#456079">INPUT GST</text>
          </g>
          <g transform="translate(12, 48)">
            <text x="0" y="20" font-family="Hind" font-size="20" font-weight="700" fill="#384959">₹61,560</text>
          </g>
        </g>
      </g>
      <g transform="translate(16, 106)">
        <rect width="358" height="85" rx="8" ry="8" fill="#FFFFFF"/>
        <g transform="translate(10, 10)">
          <g>
            <text x="0" y="14" font-family="Hind" font-size="14" font-weight="700" fill="#384959">INV-MF-20981</text>
          </g>
          <g transform="translate(0, 37)">
            <text x="0" y="11" font-family="Hind" font-size="11" fill="#456079">GSTIN ending 1ZT</text>
          </g>
          <g transform="translate(0, 70)">
            <text x="0" y="12" font-family="Hind" font-size="12" font-weight="600" fill="#384959">₹50,150</text>
          </g>
        </g>
        <g transform="translate(98, 44)">
          <text x="0" y="12" font-family="Hind" font-size="12" font-weight="600" fill="#384959">PDF ↓</text>
        </g>
      </g>
      <g transform="translate(16, 203)">
        <rect width="358" height="85" rx="8" ry="8" fill="#FFFFFF"/>
        <g transform="translate(10, 10)">
          <g>
            <text x="0" y="14" font-family="Hind" font-size="14" font-weight="700" fill="#384959">INV-TM-18820</text>
          </g>
          <g transform="translate(0, 37)">
            <text x="0" y="11" font-family="Hind" font-size="11" fill="#456079">GSTIN ending 1Z1</text>
          </g>
          <g transform="translate(0, 70)">
            <text x="0" y="12" font-family="Hind" font-size="12" font-weight="600" fill="#384959">₹1,41,212</text>
          </g>
        </g>
        <g transform="translate(99, 44)">
          <text x="0" y="12" font-family="Hind" font-size="12" font-weight="600" fill="#384959">PDF ↓</text>
        </g>
      </g>
      <g transform="translate(16, 300)">
        <rect width="358" height="85" rx="8" ry="8" fill="#FFFFFF"/>
        <g transform="translate(10, 10)">
          <g>
            <text x="0" y="14" font-family="Hind" font-size="14" font-weight="700" fill="#384959">INV-PL-17290</text>
          </g>
          <g transform="translate(0, 39)">
            <text x="0" y="11" font-family="Hind" font-size="11" fill="#456079">GSTIN ending 1ZQ</text>
          </g>
          <g transform="translate(0, 72)">
            <text x="0" y="12" font-family="Hind" font-size="12" font-weight="600" fill="#384959">₹92,840</text>
          </g>
        </g>
        <g transform="translate(95, 45)">
          <text x="0" y="12" font-family="Hind" font-size="12" font-weight="600" fill="#384959">PDF ↓</text>
        </g>
      </g>
      <g transform="translate(16, 397)">
        <rect width="358" height="48" rx="8" ry="8" fill="#384959"/>
        <g transform="translate(0, 14.5)">
          <text x="179" y="14" font-family="Hind" font-size="14" font-weight="700" fill="#FFFFFF" text-anchor="middle">Download all · 12 invoices</text>
        </g>
      </g>
    </g>
    <g transform="translate(0, 780)">
      <rect width="390" height="64" fill="#FFFFFF"/>
      <g transform="translate(0, 23)">
        <g>
          <text x="48.75" y="11" font-family="Hind" font-size="11" fill="#456079" text-anchor="middle">Trade</text>
        </g>
      </g>
      <g transform="translate(97.5, 23)">
        <g>
          <text x="48.75" y="11" font-family="Hind" font-size="11" fill="#456079" text-anchor="middle">Credit</text>
        </g>
      </g>
      <g transform="translate(195, 23)">
        <g>
          <text x="48.75" y="11" font-family="Hind" font-size="11" fill="#456079" text-anchor="middle">Orders</text>
        </g>
      </g>
      <g transform="translate(292.5, 23)">
        <g>
          <text x="48.75" y="11" font-family="Hind" font-size="11" fill="#456079" text-anchor="middle">Account</text>
        </g>
      </g>
    </g>
  </g>
</svg>