<?xml version="1.0" encoding="UTF-8"?>
<svg xmlns="http://www.w3.org/2000/svg" xmlns:xlink="http://www.w3.org/1999/xlink" width="390" height="844" viewBox="0 0 390 844">
  <g>
    <rect width="390" height="844" fill="#F7FAFE"/>
    <g>
      <g transform="translate(8, 8)">
        <text x="0" y="11" font-family="Hind" font-size="11" fill="#384959">9:41</text>
      </g>
      <g transform="translate(338, 8)">
        <text x="0" y="11" font-family="Hind" font-size="11" fill="#384959">5G  100%</text>
      </g>
    </g>
    <g transform="translate(0, 34)">
      <g transform="translate(16, 16)">
        <text x="0" y="20" font-family="Hind" font-size="20" font-weight="700" fill="#384959">Team &amp; roles</text>
      </g>
      <g transform="translate(333, 26)">
        <text x="0" y="12" font-family="Hind" font-size="12" font-weight="600" fill="#384959">+ Invite</text>
      </g>
    </g>
    <g transform="translate(0, 98)">
      <rect width="390" height="43" fill="#EAF3FE"/>
      <g transform="translate(12, 12)">
        <text x="0" y="12" font-family="Hind" font-size="12" fill="#456079">4 seats used</text>
      </g>
      <g transform="translate(76, 12)">
        <text x="0" y="12" font-family="Hind" font-size="12" font-weight="600" fill="#384959">6 available</text>
      </g>
    </g>
    <g transform="translate(0, 141)">
      <g transform="translate(12, 12)">
        <rect width="366" height="59" rx="8" ry="8" fill="#FFFFFF"/>
        <g transform="translate(8, 9.5)">
          <rect width="40" height="40" rx="999" ry="999" fill="#BDDCFC"/>
          <g transform="translate(0, 11.5)">
            <text x="20" y="14" font-family="Hind" font-size="14" font-weight="700" fill="#384959" text-anchor="middle">RS</text>
          </g>
        </g>
        <g transform="translate(58, 8)">
          <g>
            <text x="0" y="14" font-family="Hind" font-size="14" font-weight="700" fill="#384959">Rajiv Sharma</text>
          </g>
          <g transform="translate(0, 41)">
            <text x="0" y="11" font-family="Hind" font-size="11" fill="#456079">Owner · Full access</text>
          </g>
        </g>
        <g transform="translate(301, 15.5)">
          <rect width="41" height="28" rx="999" ry="999" fill="#E5F5ED"/>
          <g transform="translate(5, 5)">
            <text x="0" y="11" font-family="Hind" font-size="11" fill="#067647">Active</text>
          </g>
        </g>
        <g transform="translate(209, 35)">
          <text x="0" y="14" font-family="Hind" font-size="14" fill="#456079">›</text>
        </g>
      </g>
      <g transform="translate(12, 79)">
        <rect width="366" height="59" rx="8" ry="8" fill="#FFFFFF"/>
        <g transform="translate(8, 9.5)">
          <rect width="40" height="40" rx="999" ry="999" fill="#BDDCFC"/>
          <g transform="translate(0, 11.5)">
            <text x="20" y="14" font-family="Hind" font-size="14" font-weight="700" fill="#384959" text-anchor="middle">NM</text>
          </g>
        </g>
        <g transform="translate(58, 8)">
          <g>
            <text x="0" y="14" font-family="Hind" font-size="14" font-weight="700" fill="#384959">Neha Mehta</text>
          </g>
          <g transform="translate(0, 41)">
            <text x="0" y="11" font-family="Hind" font-size="11" fill="#456079">Approver · ₹1L limit</text>
          </g>
        </g>
        <g transform="translate(301, 15.5)">
          <rect width="41" height="28" rx="999" ry="999" fill="#E5F5ED"/>
          <g transform="translate(5, 5)">
            <text x="0" y="11" font-family="Hind" font-size="11" fill="#067647">Active</text>
          </g>
        </g>
        <g transform="translate(210, 36)">
          <text x="0" y="14" font-family="Hind" font-size="14" fill="#456079">›</text>
        </g>
      </g>
      <g transform="translate(12, 146)">
        <rect width="366" height="59" rx="8" ry="8" fill="#FFFFFF"/>
        <g transform="translate(8, 9.5)">
          <rect width="40" height="40" rx="999" ry="999" fill="#BDDCFC"/>
          <g transform="translate(0, 11.5)">
            <text x="20" y="14" font-family="Hind" font-size="14" font-weight="700" fill="#384959" text-anchor="middle">AK</text>
          </g>
        </g>
        <g transform="translate(58, 8)">
          <g>
            <text x="0" y="14" font-family="Hind" font-size="14" font-weight="700" fill="#384959">Amit Kulkarni</text>
          </g>
          <g transform="translate(0, 22)">
            <text x="0" y="11" font-family="Hind" font-size="11" fill="#456079">Buyer · ₹50K limit</text>
          </g>
        </g>
        <g transform="translate(301, 15.5)">
          <rect width="41" height="28" rx="999" ry="999" fill="#E5F5ED"/>
          <g transform="translate(5, 5)">
            <text x="0" y="11" font-family="Hind" font-size="11" fill="#067647">Active</text>
          </g>
        </g>
        <g transform="translate(207, 26.5)">
          <text x="0" y="14" font-family="Hind" font-size="14" fill="#456079">›</text>
        </g>
      </g>
      <g transform="translate(12, 213)">
        <rect width="366" height="59" rx="8" ry="8" fill="#FFFFFF"/>
        <g transform="translate(8, 9.5)">
          <rect width="40" height="40" rx="999" ry="999" fill="#BDDCFC"/>
          <g transform="translate(0, 10.5)">
            <text x="20" y="14" font-family="Hind" font-size="14" font-weight="700" fill="#384959" text-anchor="middle">PS</text>
          </g>
        </g>
        <g transform="translate(58, 8)">
          <g>
            <text x="0" y="14" font-family="Hind" font-size="14" font-weight="700" fill="#384959">Priya Shah</text>
          </g>
          <g transform="translate(0, 39)">
            <text x="0" y="11" font-family="Hind" font-size="11" fill="#456079">Site receiver · No purchase</text>
          </g>
        </g>
        <g transform="translate(301, 15.5)">
          <rect width="41" height="28" rx="999" ry="999" fill="#E5F5ED"/>
          <g transform="translate(5, 5)">
            <text x="0" y="11" font-family="Hind" font-size="11" fill="#067647">Active</text>
          </g>
        </g>
        <g transform="translate(245, 34)">
          <text x="0" y="14" font-family="Hind" font-size="14" fill="#456079">›</text>
        </g>
      </g>
      <g transform="translate(12, 280)">
        <rect width="366" height="59" rx="8" ry="8" fill="#FFFFFF"/>
        <g transform="translate(8, 9.5)">
          <rect width="40" height="40" rx="999" ry="999" fill="#BDDCFC"/>
          <g transform="translate(0, 11.5)">
            <text x="20" y="14" font-family="Hind" font-size="14" font-weight="700" fill="#384959" text-anchor="middle">VR</text>
          </g>
        </g>
        <g transform="translate(58, 8)">
          <g>
            <text x="0" y="14" font-family="Hind" font-size="14" font-weight="700" fill="#384959">Vikas Rao</text>
          </g>
          <g transform="translate(0, 41)">
            <text x="0" y="11" font-family="Hind" font-size="11" fill="#456079">Buyer</text>
          </g>
        </g>
        <g transform="translate(299, 15.5)">
          <rect width="43" height="28" rx="999" ry="999" fill="#FFF1D8"/>
          <g transform="translate(5, 5)">
            <text x="0" y="11" font-family="Hind" font-size="11" fill="#9A610A">Invited</text>
          </g>
        </g>
        <g transform="translate(183, 35)">
          <text x="0" y="14" font-family="Hind" font-size="14" fill="#456079">›</text>
        </g>
      </g>
      <g transform="translate(12, 347)">
        <rect width="366" height="38" rx="8" ry="8" fill="#E7F1FF"/>
        <g transform="translate(10, 10)">
          <text x="173" y="11" font-family="Hind" font-size="11" fill="#175CD3" text-anchor="middle">Roles control ordering, approvals and invoice access.</text>
        </g>
      </g>
    </g>
    <g transform="translate(0, 780)">
      <rect width="390" height="64" fill="#FFFFFF"/>
      <g transform="translate(16, 23)">
        <g>
          <text x="44.75" y="11" font-family="Hind" font-size="11" fill="#456079" text-anchor="middle">Trade</text>
        </g>
      </g>
      <g transform="translate(105.5, 23)">
        <g>
          <text x="44.75" y="11" font-family="Hind" font-size="11" fill="#456079" text-anchor="middle">Credit</text>
        </g>
      </g>
      <g transform="translate(195, 23)">
        <g>
          <text x="44.75" y="11" font-family="Hind" font-size="11" fill="#456079" text-anchor="middle">Orders</text>
        </g>
      </g>
      <g transform="translate(284.5, 23)">
        <g>
          <text x="44.75" y="11" font-family="Hind" font-size="11" fill="#456079" text-anchor="middle">Account</text>
        </g>
      </g>
    </g>
  </g>
</svg>