<?xml version="1.0" encoding="UTF-8"?>
<svg xmlns="http://www.w3.org/2000/svg" xmlns:xlink="http://www.w3.org/1999/xlink" width="390" height="844" viewBox="0 0 390 844">
  <defs>
    <filter id="fx0">
      <feDropShadow dx="0" dy="1" stdDeviation="1.5" flood-color="#384959" flood-opacity="0.08"/>
    </filter>
    <filter id="fx1">
      <feDropShadow dx="0" dy="1" stdDeviation="1.5" flood-color="#384959" flood-opacity="0.08"/>
    </filter>
    <filter id="fx2">
      <feDropShadow dx="0" dy="1" stdDeviation="1.5" flood-color="#384959" flood-opacity="0.08"/>
    </filter>
    <filter id="fx3">
      <feDropShadow dx="0" dy="1" stdDeviation="1.5" flood-color="#384959" flood-opacity="0.08"/>
    </filter>
  </defs>
  <g>
    <rect width="390" height="844" fill="#F7FAFE"/>
    <g>
      <g transform="translate(8, 8)">
        <text x="0" y="11" font-family="Hind" font-size="11" font-weight="600" fill="#384959">9:41</text>
      </g>
      <g transform="translate(334, 8)">
        <text x="0" y="11" font-family="Hind" font-size="11" font-weight="600" fill="#384959">5G   100%</text>
      </g>
    </g>
    <g transform="translate(0, 34)">
      <rect width="390" height="52" fill="#FFFFFF" stroke="#DCE6F0" stroke-width="1"/>
      <g transform="translate(12, 14)">
        <path d="M15 18L9 12L15 6" fill="none" stroke="#384959" stroke-width="2"/>
      </g>
      <g transform="translate(48, 13)">
        <text x="0" y="16" font-family="Hind" font-size="16" font-weight="700" fill="#384959">Schemes &amp; Offers</text>
      </g>
      <g transform="translate(187, -24)"/>
      <g transform="translate(351, 13)">
        <rect width="27" height="26" rx="4" ry="4" fill="#EAF3FE"/>
        <g transform="translate(4, 4)">
          <text x="0" y="11" font-family="Hind" font-size="11" font-weight="700" fill="#384959">B2B</text>
        </g>
      </g>
    </g>
    <g transform="translate(0, 86)">
      <g transform="translate(16, 16)">
        <text x="0" y="12" font-family="Hind" font-size="12" fill="#456079">Active offers applied automatically to your trade orders.</text>
      </g>
      <g transform="translate(16, 47)" filter="url(#fx0)">
        <rect width="358" height="90" rx="12" ry="12" fill="#FFFFFF" stroke="#DCE6F0" stroke-width="1"/>
        <g transform="translate(12, 25)">
          <rect width="40" height="40" rx="999" ry="999" fill="#BDDCFC"/>
          <g transform="translate(9, 9)">
            <path d="M3.67 11L11 3.67L18.33 3.67L18.33 11L11 18.33L3.67 11Z" fill="none" stroke="#384959" stroke-width="1.65"/>
          </g>
        </g>
        <g transform="translate(64, 12)">
          <g>
            <text x="0" y="14" font-family="Hind" font-size="14" font-weight="700" fill="#384959">Monsoon Trade Offer</text>
          </g>
          <g transform="translate(0, 26)">
            <text x="0" y="11" font-family="Hind" font-size="11" fill="#456079">Extra 5% off on orders ₹1,00,000+</text>
          </g>
          <g transform="translate(0, 48)">
            <text x="0" y="11" font-family="Hind" font-size="11" fill="#55708A">Valid till 31 Oct</text>
          </g>
        </g>
        <g transform="translate(306, 32)">
          <rect width="40" height="26" rx="4" ry="4" fill="#E5F5ED"/>
          <g transform="translate(4, 4)">
            <text x="0" y="11" font-family="Hind" font-size="11" font-weight="700" fill="#067647">Active</text>
          </g>
        </g>
      </g>
      <g transform="translate(16, 149)" filter="url(#fx1)">
        <rect width="358" height="90" rx="12" ry="12" fill="#FFFFFF" stroke="#DCE6F0" stroke-width="1"/>
        <g transform="translate(12, 25)">
          <rect width="40" height="40" rx="999" ry="999" fill="#BDDCFC"/>
          <g transform="translate(9, 9)">
            <path d="M3.67 11L11 3.67L18.33 3.67L18.33 11L11 18.33L3.67 11Z" fill="none" stroke="#384959" stroke-width="1.65"/>
          </g>
        </g>
        <g transform="translate(64, 12)">
          <g>
            <text x="0" y="14" font-family="Hind" font-size="14" font-weight="700" fill="#384959">Bulk Cement Saver</text>
          </g>
          <g transform="translate(0, 26)">
            <text x="0" y="11" font-family="Hind" font-size="11" fill="#456079">₹15 off per bag on 200+ bags</text>
          </g>
          <g transform="translate(0, 48)">
            <text x="0" y="11" font-family="Hind" font-size="11" fill="#55708A">Valid till 15 Oct</text>
          </g>
        </g>
        <g transform="translate(306, 32)">
          <rect width="40" height="26" rx="4" ry="4" fill="#E5F5ED"/>
          <g transform="translate(4, 4)">
            <text x="0" y="11" font-family="Hind" font-size="11" font-weight="700" fill="#067647">Active</text>
          </g>
        </g>
      </g>
      <g transform="translate(16, 251)" filter="url(#fx2)">
        <rect width="358" height="90" rx="12" ry="12" fill="#FFFFFF" stroke="#DCE6F0" stroke-width="1"/>
        <g transform="translate(12, 25)">
          <rect width="40" height="40" rx="999" ry="999" fill="#BDDCFC"/>
          <g transform="translate(9, 9)">
            <path d="M3.67 11L11 3.67L18.33 3.67L18.33 11L11 18.33L3.67 11Z" fill="none" stroke="#384959" stroke-width="1.65"/>
          </g>
        </g>
        <g transform="translate(64, 12)">
          <g>
            <text x="0" y="14" font-family="Hind" font-size="14" font-weight="700" fill="#384959">Festive Electricals</text>
          </g>
          <g transform="translate(0, 26)">
            <text x="0" y="11" font-family="Hind" font-size="11" fill="#456079">8% off on wiring and switches</text>
          </g>
          <g transform="translate(0, 48)">
            <text x="0" y="11" font-family="Hind" font-size="11" fill="#55708A">Starts 20 Oct</text>
          </g>
        </g>
        <g transform="translate(287, 32)">
          <rect width="59" height="26" rx="4" ry="4" fill="#EAF3FE"/>
          <g transform="translate(4, 4)">
            <text x="0" y="11" font-family="Hind" font-size="11" font-weight="700" fill="#384959">Upcoming</text>
          </g>
        </g>
      </g>
      <g transform="translate(16, 353)" filter="url(#fx3)">
        <rect width="358" height="90" rx="12" ry="12" fill="#FFFFFF" stroke="#DCE6F0" stroke-width="1"/>
        <g transform="translate(12, 25)">
          <rect width="40" height="40" rx="999" ry="999" fill="#BDDCFC"/>
          <g transform="translate(9, 9)">
            <path d="M3.67 11L11 3.67L18.33 3.67L18.33 11L11 18.33L3.67 11Z" fill="none" stroke="#384959" stroke-width="1.65"/>
          </g>
        </g>
        <g transform="translate(64, 12)">
          <g>
            <text x="0" y="14" font-family="Hind" font-size="14" font-weight="700" fill="#384959">Credit Boost</text>
          </g>
          <g transform="translate(0, 26)">
            <text x="0" y="11" font-family="Hind" font-size="11" fill="#456079">Extra ₹50,000 limit on 30-day terms</text>
          </g>
          <g transform="translate(0, 48)">
            <text x="0" y="11" font-family="Hind" font-size="11" fill="#55708A">Valid till 30 Nov</text>
          </g>
        </g>
        <g transform="translate(306, 32)">
          <rect width="40" height="26" rx="4" ry="4" fill="#E5F5ED"/>
          <g transform="translate(4, 4)">
            <text x="0" y="11" font-family="Hind" font-size="11" font-weight="700" fill="#067647">Active</text>
          </g>
        </g>
      </g>
    </g>
    <g transform="translate(0, 780)">
      <rect width="390" height="64" fill="#FFFFFF" stroke="#DCE6F0" stroke-width="1"/>
      <g transform="translate(8, 8)">
        <g transform="translate(31.75, 1)">
          <path d="M4 9L4 19L20 19L20 9M3 9L5 4L19 4L21 9M9 19L9 14L15 14L15 19" fill="none" stroke="#55708A" stroke-width="2"/>
        </g>
        <g transform="translate(0, 29)">
          <text x="0" y="11" font-family="Hind" font-size="11" font-weight="600" fill="#55708A">Trade</text>
        </g>
      </g>
      <g transform="translate(103.5, 8)">
        <g transform="translate(31.75, 1)">
          <path d="M3 6L21 6L21 18L3 18L3 6Z" fill="none" stroke="#55708A" stroke-width="2"/>
        </g>
        <g transform="translate(0, 29)">
          <text x="0" y="11" font-family="Hind" font-size="11" font-weight="600" fill="#55708A">Credit</text>
        </g>
      </g>
      <g transform="translate(199, 8)">
        <g transform="translate(31.75, 1)">
          <path d="M6 3L18 3L18 21L15 19L12 21L9 19L6 21L6 3Z" fill="none" stroke="#55708A" stroke-width="2"/>
        </g>
        <g transform="translate(0, 29)">
          <text x="0" y="11" font-family="Hind" font-size="11" font-weight="600" fill="#55708A">Orders</text>
        </g>
      </g>
      <g transform="translate(294.5, 8)">
        <g transform="translate(31.75, 1)">
          <path d="M12 12C14.21 12 16 10.21 16 8C16 5.79 14.21 4 12 4C9.79 4 8 5.79 8 8C8 10.21 9.79 12 12 12Z" fill="none" stroke="#384959" stroke-width="2"/>
        </g>
        <g transform="translate(0, 29)">
          <text x="0" y="11" font-family="Hind" font-size="11" font-weight="700" fill="#384959">Account</text>
        </g>
      </g>
    </g>
  </g>
</svg>