<?xml version="1.0" encoding="UTF-8"?>
<svg xmlns="http://www.w3.org/2000/svg" xmlns:xlink="http://www.w3.org/1999/xlink" width="1200" height="836" viewBox="0 0 1200 836">
  <g>
    <g transform="translate(24, 24)">
      <g>
        <rect width="276" height="88" rx="8" ry="8" fill="#FFFFFF"/>
        <g transform="translate(16, 16)">
          <text x="0" y="11" font-family="Hind" font-size="11" fill="#55708A">TO FULFIL</text>
        </g>
        <g transform="translate(16, 54)">
          <text x="0" y="20" font-family="Hind" font-size="20" font-weight="700" fill="#384959">18</text>
        </g>
      </g>
      <g transform="translate(292, 0)">
        <rect width="276" height="88" rx="8" ry="8" fill="#FFFFFF"/>
        <g transform="translate(16, 16)">
          <text x="0" y="11" font-family="Hind" font-size="11" fill="#55708A">READY TO DISPATCH</text>
        </g>
        <g transform="translate(16, 56)">
          <text x="0" y="20" font-family="Hind" font-size="20" font-weight="700" fill="#067647">6</text>
        </g>
      </g>
      <g transform="translate(584, 0)">
        <rect width="276" height="88" rx="8" ry="8" fill="#FFFFFF"/>
        <g transform="translate(16, 16)">
          <text x="0" y="11" font-family="Hind" font-size="11" fill="#55708A">PAST PROMISE</text>
        </g>
        <g transform="translate(16, 56)">
          <text x="0" y="20" font-family="Hind" font-size="20" font-weight="700" fill="#B42318">1</text>
        </g>
      </g>
      <g transform="translate(876, 0)">
        <rect width="276" height="88" rx="8" ry="8" fill="#FFFFFF"/>
        <g transform="translate(16, 16)">
          <text x="0" y="11" font-family="Hind" font-size="11" fill="#55708A">RETURNS OPEN</text>
        </g>
        <g transform="translate(16, 54)">
          <text x="0" y="20" font-family="Hind" font-size="20" font-weight="700" fill="#9A610A">2</text>
        </g>
      </g>
    </g>
    <g transform="translate(24, 128)">
      <rect width="1152" height="684" rx="8" ry="8" fill="#FFFFFF"/>
      <g>
        <rect width="1152" height="40" fill="#EAF3FE"/>
        <g transform="translate(16, 12)">
          <text x="0" y="12" font-family="Hind" font-size="12" font-weight="700" fill="#384959">ORDER</text>
        </g>
        <g transform="translate(172, 12)">
          <text x="0" y="12" font-family="Hind" font-size="12" font-weight="700" fill="#384959">BUYER</text>
        </g>
        <g transform="translate(408, 12)">
          <text x="0" y="12" font-family="Hind" font-size="12" font-weight="700" fill="#384959">ITEMS</text>
        </g>
        <g transform="translate(514, 12)">
          <text x="0" y="12" font-family="Hind" font-size="12" font-weight="700" fill="#384959">VALUE</text>
        </g>
        <g transform="translate(650, 11)">
          <text x="0" y="12" font-family="Hind" font-size="12" font-weight="700" fill="#384959">PROMISE</text>
        </g>
        <g transform="translate(1016, 12)">
          <text x="0" y="12" font-family="Hind" font-size="12" font-weight="700" fill="#384959">ACTION</text>
        </g>
      </g>
      <g transform="translate(0, 40)">
        <g transform="translate(16, 12)">
          <text x="0" y="12" font-family="Hind" font-size="12" fill="#456079">AK-241883</text>
        </g>
        <g transform="translate(172, 11)">
          <text x="0" y="12" font-family="Hind" font-size="12" fill="#384959">Sharma Traders, Pune</text>
        </g>
        <g transform="translate(408, 12)">
          <text x="0" y="12" font-family="Hind" font-size="12" fill="#456079">3</text>
        </g>
        <g transform="translate(514, 11)">
          <text x="0" y="12" font-family="Hind" font-size="12" font-weight="700" fill="#384959">Rs 18,240</text>
        </g>
        <g transform="translate(650, 11)">
          <text x="0" y="12" font-family="Hind" font-size="12" fill="#456079">Today 6 PM</text>
        </g>
        <g transform="translate(1016, 11)">
          <text x="0" y="12" font-family="Hind" font-size="12" font-weight="700" fill="#175CD3">Pack now</text>
        </g>
      </g>
      <g transform="translate(0, 80)">
        <g transform="translate(16, 12)">
          <text x="0" y="12" font-family="Hind" font-size="12" fill="#456079">AK-241880</text>
        </g>
        <g transform="translate(172, 11)">
          <text x="0" y="12" font-family="Hind" font-size="12" fill="#384959">Nakoda Steels, Nashik</text>
        </g>
        <g transform="translate(408, 12)">
          <text x="0" y="12" font-family="Hind" font-size="12" fill="#456079">1</text>
        </g>
        <g transform="translate(514, 11)">
          <text x="0" y="12" font-family="Hind" font-size="12" font-weight="700" fill="#384959">Rs 7,450</text>
        </g>
        <g transform="translate(650, 11)">
          <text x="0" y="12" font-family="Hind" font-size="12" fill="#456079">Today 6 PM</text>
        </g>
        <g transform="translate(1016, 11)">
          <text x="0" y="12" font-family="Hind" font-size="12" font-weight="700" fill="#175CD3">Pack now</text>
        </g>
      </g>
      <g transform="translate(0, 120)">
        <g transform="translate(16, 12)">
          <text x="0" y="12" font-family="Hind" font-size="12" fill="#456079">AK-241871</text>
        </g>
        <g transform="translate(172, 11)">
          <text x="0" y="12" font-family="Hind" font-size="12" fill="#384959">Bharat Electricals, Mumbai</text>
        </g>
        <g transform="translate(408, 12)">
          <text x="0" y="12" font-family="Hind" font-size="12" fill="#456079">6</text>
        </g>
        <g transform="translate(514, 11)">
          <text x="0" y="12" font-family="Hind" font-size="12" font-weight="700" fill="#384959">Rs 41,900</text>
        </g>
        <g transform="translate(650, 11)">
          <text x="0" y="12" font-family="Hind" font-size="12" font-weight="700" fill="#B42318">Past promise</text>
        </g>
        <g transform="translate(1016, 11)">
          <text x="0" y="12" font-family="Hind" font-size="12" font-weight="700" fill="#B42318">Escalate</text>
        </g>
      </g>
      <g transform="translate(0, 160)">
        <g transform="translate(16, 12)">
          <text x="0" y="12" font-family="Hind" font-size="12" fill="#456079">AK-241862</text>
        </g>
        <g transform="translate(172, 11)">
          <text x="0" y="12" font-family="Hind" font-size="12" fill="#384959">Jain &amp; Sons, Surat</text>
        </g>
        <g transform="translate(408, 12)">
          <text x="0" y="12" font-family="Hind" font-size="12" fill="#456079">2</text>
        </g>
        <g transform="translate(514, 11)">
          <text x="0" y="12" font-family="Hind" font-size="12" font-weight="700" fill="#384959">Rs 9,980</text>
        </g>
        <g transform="translate(650, 11)">
          <text x="0" y="12" font-family="Hind" font-size="12" fill="#456079">Tomorrow 12 PM</text>
        </g>
        <g transform="translate(1016, 11)">
          <text x="0" y="12" font-family="Hind" font-size="12" font-weight="700" fill="#067647">Dispatched</text>
        </g>
      </g>
    </g>
  </g>
</svg>