<?xml version="1.0" encoding="UTF-8"?>
<svg xmlns="http://www.w3.org/2000/svg" xmlns:xlink="http://www.w3.org/1999/xlink" width="390" height="844" viewBox="0 0 390 844">
  <g>
    <rect width="390" height="844" fill="#F7FAFE"/>
    <g>
      <g transform="translate(8, 8)">
        <text x="0" y="11" font-family="Hind" font-size="11" fill="#384959">9:41</text>
      </g>
      <g transform="translate(338, 8)">
        <text x="0" y="11" font-family="Hind" font-size="11" fill="#384959">5G  100%</text>
      </g>
    </g>
    <g transform="translate(0, 34)">
      <g transform="translate(16, 16)">
        <text x="0" y="20" font-family="Hind" font-size="20" font-weight="700" fill="#384959">Saved addresses</text>
      </g>
      <g transform="translate(341, 27)">
        <text x="0" y="12" font-family="Hind" font-size="12" font-weight="600" fill="#384959">+ Add</text>
      </g>
    </g>
    <g transform="translate(0, 98)">
      <g transform="translate(16, 16)">
        <rect width="358" height="117" rx="12" ry="12" fill="#FFFFFF" stroke="#DCE6F0" stroke-width="1"/>
        <g transform="translate(16, 16)">
          <g>
            <text x="0" y="16" font-family="Hind" font-size="16" font-weight="700" fill="#384959">Home</text>
          </g>
          <g transform="translate(278, 0)">
            <rect width="48" height="30" rx="999" ry="999" fill="#E5F5ED"/>
            <g transform="translate(6, 6)">
              <text x="0" y="11" font-family="Hind" font-size="11" font-weight="600" fill="#067647">Default</text>
            </g>
          </g>
        </g>
        <g transform="translate(16, 67)">
          <text x="0" y="14" font-family="Hind" font-size="14" fill="#456079">Flat 12B, Baner Road, Pune 411045</text>
        </g>
        <g transform="translate(16, 82)">
          <g>
            <text x="0" y="12" font-family="Hind" font-size="12" font-weight="600" fill="#384959">Edit</text>
          </g>
          <g transform="translate(42, 0)">
            <text x="0" y="12" font-family="Hind" font-size="12" font-weight="600" fill="#B42318">Remove</text>
          </g>
        </g>
      </g>
      <g transform="translate(16, 145)">
        <rect width="358" height="113" rx="12" ry="12" fill="#FFFFFF" stroke="#DCE6F0" stroke-width="1"/>
        <g transform="translate(16, 16)">
          <g>
            <text x="0" y="16" font-family="Hind" font-size="16" font-weight="700" fill="#384959">Workshop</text>
          </g>
        </g>
        <g transform="translate(16, 67)">
          <text x="0" y="14" font-family="Hind" font-size="14" fill="#456079">Plot 17, MIDC Bhosari, Pune 411026</text>
        </g>
        <g transform="translate(16, 78)">
          <g>
            <text x="0" y="12" font-family="Hind" font-size="12" font-weight="600" fill="#384959">Edit</text>
          </g>
          <g transform="translate(42, 0)">
            <text x="0" y="12" font-family="Hind" font-size="12" font-weight="600" fill="#B42318">Remove</text>
          </g>
        </g>
      </g>
      <g transform="translate(16, 270)">
        <rect width="358" height="43" rx="8" ry="8" fill="#EAF3FE"/>
        <g transform="translate(12, 12)">
          <text x="0" y="12" font-family="Hind" font-size="12" fill="#456079">Default address is preselected at checkout.</text>
        </g>
      </g>
    </g>
    <g transform="translate(0, 780)">
      <rect width="390" height="64" fill="#FFFFFF"/>
      <g transform="translate(0, 23)">
        <g>
          <text x="39" y="11" font-family="Hind" font-size="11" fill="#456079" text-anchor="middle">Home</text>
        </g>
      </g>
      <g transform="translate(78, 23)">
        <g>
          <text x="39" y="11" font-family="Hind" font-size="11" fill="#456079" text-anchor="middle">Browse</text>
        </g>
      </g>
      <g transform="translate(156, 23)">
        <g>
          <text x="39" y="11" font-family="Hind" font-size="11" fill="#456079" text-anchor="middle">Orders</text>
        </g>
      </g>
      <g transform="translate(234, 23)">
        <g>
          <text x="39" y="11" font-family="Hind" font-size="11" fill="#456079" text-anchor="middle">Cart</text>
        </g>
      </g>
      <g transform="translate(312, 23)">
        <g>
          <text x="39" y="11" font-family="Hind" font-size="11" font-weight="700" fill="#384959" text-anchor="middle">Account</text>
        </g>
      </g>
    </g>
  </g>
</svg>